<?xml version="1.0" encoding="UTF-8" standalone="no"?>
<!DOCTYPE svg PUBLIC "-//W3C//DTD SVG 1.1//EN" "http://www.w3.org/Graphics/SVG/1.1/DTD/svg11.dtd">
<svg width="100%" height="100%" viewBox="0 0 4961 3508" version="1.1" xmlns="http://www.w3.org/2000/svg" xmlns:xlink="http://www.w3.org/1999/xlink" xml:space="preserve" xmlns:serif="http://www.serif.com/" style="fill-rule:evenodd;clip-rule:evenodd;stroke-linejoin:round;stroke-miterlimit:2;">
    <g transform="matrix(1.41264,0,0,1.41264,2471.29,1757.43)">
        <g id="Hoher-Stein.ai" serif:id="Hoher Stein.ai" transform="matrix(1,0,0,1,-1753.94,-1240.16)">
            <g id="Ebene-1" serif:id="Ebene 1" transform="matrix(4.16667,0,0,4.16667,0,0)">
                <g transform="matrix(1,0,0,1,486.966,238.919)">
                    <path d="M0,9.302C-10.327,9.635 -20.672,9.67 -30.967,9.024C-37.573,8.61 -44.325,8.7 -50.749,6.55C-52.25,6.047 -53.808,5.702 -55.279,5.13C-56.168,4.784 -56.999,4.056 -56.957,3.025C-56.922,2.191 -56.071,1.797 -55.327,1.464C-52.677,0.276 -49.921,-0.368 -47.003,-0.227C-42.385,1.887 -37.342,1.987 -32.494,2.064C-14.282,2.352 3.937,2.203 22.154,2.161C26.007,2.153 29.74,1.298 33.431,0.251C35.315,0.42 37.054,1.241 38.972,1.368C40.406,1.463 42.065,2.056 42.171,3.697C42.293,5.58 40.416,5.634 39.098,5.905C32.424,7.272 25.656,7.841 18.869,8.356C12.584,8.834 6.252,8.267 0,9.302" style="fill:rgb(235,189,104);fill-rule:nonzero;"/>
                </g>
                <g transform="matrix(1,0,0,1,467.038,211.319)">
                    <path d="M0,6.412C1.632,4.082 3.971,2.368 6.031,0.414C7.501,-0.979 9.485,-1.582 11.447,-1.919C16.213,-2.736 20.997,-3.125 25.385,-0.515C27.497,0.742 29.187,2.422 30.737,4.248C32.087,5.838 32.723,5.973 34.688,5.147C35.957,4.614 37.144,3.908 38.411,3.367C42.376,1.676 45.288,2.324 47.961,5.222C48.769,6.098 49.726,6.881 49.697,8.178C49.271,8.359 48.833,8.388 48.383,8.269C44.37,4.588 40.141,4.094 35.515,7.359C34.236,8.261 32.637,8.415 31.059,7.841C28.517,6.446 27.746,2.746 24.474,2.64C21.416,2.542 20.198,5.744 17.913,7.191C14.301,9.478 11.244,9.537 7.504,7.285C6.308,6.565 5.339,4.864 3.521,6.308C2.359,7.072 1.776,8.878 -0.22,8.145C-0.582,7.518 -0.498,6.942 0,6.412" style="fill:rgb(219,194,163);fill-rule:nonzero;"/>
                </g>
                <g transform="matrix(1,0,0,1,515.749,242.519)">
                    <path d="M0,-23.083C0.329,-23.087 0.657,-23.091 0.986,-23.095C3.216,-20.645 3.362,-17.489 3.917,-14.471C5.059,-11.346 3.503,-7.966 4.828,-4.858L4.802,-4.893C5.365,-4.257 5.412,-3.609 4.846,-2.947C4.297,-1.895 3.508,-1.172 2.268,-1.061C-2.008,-0.679 -6.233,0.012 -10.573,-0.024C-27.039,-0.163 -43.508,-0.084 -59.976,-0.076C-65.691,-0.073 -71.252,-1.184 -77.095,-2.147C-76.517,-2.89 -76.152,-3.359 -75.787,-3.828C-75.787,-3.827 -75.708,-3.86 -75.708,-3.86C-75.255,-4.405 -74.597,-4.386 -73.981,-4.483C-68.844,-5.552 -63.607,-6.168 -58.605,-7.853C-58.057,-8.435 -57.548,-9.098 -56.591,-8.849C-56.253,-8.419 -56.104,-7.929 -56.144,-7.383C-58.352,-3.096 -62.652,-4.191 -67.015,-3.114C-46.583,-1.774 -26.874,-2.403 -7.185,-2.58C1.552,-2.658 2.439,-4.295 1.365,-13.119C0.98,-16.281 -1.006,-19.113 -0.447,-22.443C-0.3,-22.657 -0.15,-22.87 0,-23.083" style="fill:rgb(197,167,129);fill-rule:nonzero;"/>
                </g>
                <g transform="matrix(1,0,0,1,520.595,246.445)">
                    <path d="M0,-6.873C-0.014,-7.522 -0.029,-8.17 -0.044,-8.819C1.821,-8.416 3.706,-8.086 5.545,-7.587C7.235,-7.129 8.893,-6.538 10.528,-5.908C11.259,-5.626 11.977,-5.124 11.837,-4.156C11.717,-3.323 11.219,-2.683 10.452,-2.331C9.875,-2.066 9.25,-1.905 8.645,-1.701C5.003,-0.476 1.226,0.212 -2.556,0.699C-12.234,1.946 -21.982,1.888 -31.719,1.896C-32.356,1.897 -32.993,1.818 -33.629,1.776C-32.991,0.907 -32.063,0.796 -31.087,0.796C-29.024,0.797 -26.961,0.794 -24.897,0.783C-23.156,0.773 -21.444,0.764 -19.728,0.208C-18.558,-0.171 -17.23,-0.113 -15.97,-0.156C-12.343,-0.279 -8.753,-0.336 -5.112,-0.896C-2.032,-1.37 1.106,-1.945 4.258,-2.079C5.408,-2.128 6.455,-2.391 7.395,-3.023C7.61,-3.168 7.82,-3.524 7.797,-3.76C7.772,-4.023 7.528,-4.332 7.292,-4.496C6.303,-5.183 5.134,-5.047 4.062,-4.933C2.248,-4.74 1.107,-5.715 0,-6.873" style="fill:rgb(238,194,118);fill-rule:nonzero;"/>
                </g>
                <g transform="matrix(1,0,0,1,458.962,216.407)">
                    <path d="M0,17.248C0.904,11.828 3.796,7.369 6.893,3.01C8.417,2.619 8.595,0.867 9.793,0.147C11.859,-1.281 12.963,0.648 14.306,1.51C18.53,4.218 22.262,4.134 26.039,1.127C32.869,-4.311 32.869,-4.311 38.555,2.061C40.318,2.202 41.897,1.953 43.397,0.785C44.61,-0.16 46.085,-0.886 47.557,-1.354C50.051,-2.148 52.517,-2.161 54.396,0.159C55.179,1.127 55.989,2.073 56.787,3.029L56.623,3.205C52.258,7.957 46.317,10.087 40.667,12.65C37.994,13.862 35.679,15.226 33.854,17.669C31.121,21.33 27.005,21.559 24.123,18.027C22.041,15.475 19.754,14.567 16.671,14.765C13.725,14.953 10.891,14.357 8.442,12.676C5.943,10.961 4.47,11.441 3.43,14.294C2.914,15.711 2.341,17.4 0.316,17.498L0,17.248Z" style="fill:rgb(197,167,129);fill-rule:nonzero;"/>
                </g>
                <g transform="matrix(1,0,0,1,497.518,213.479)">
                    <path d="M0,4.988C-0.563,4.741 -1.24,4.616 -1.662,4.219C-2.346,3.578 -2.806,2.704 -3.46,2.024C-5.697,-0.298 -6.544,-0.29 -8.958,1.967C-9.306,2.291 -9.697,2.593 -9.962,2.979C-11.977,5.918 -15.222,6.239 -18.294,6.849C-20.06,7.2 -21.681,6.53 -23.334,5.856C-25.238,5.08 -26.553,3.201 -28.763,3.074C-28.434,2.32 -27.987,1.651 -27.139,1.459C-26.468,1.308 -25.923,1.669 -25.451,2.125C-24.994,2.568 -24.518,2.994 -24.083,3.458C-20.811,6.95 -16.547,6.291 -13.089,3.201C-11.784,2.036 -10.637,0.694 -9.335,-0.474C-7.397,-2.212 -5.915,-2.144 -3.898,-0.361C-2.206,1.136 -0.83,2.863 0,4.988" style="fill:rgb(203,173,135);fill-rule:nonzero;"/>
                </g>
                <g transform="matrix(1,0,0,1,459.278,227.22)">
                    <path d="M0,6.685C1.67,4.682 2.352,2.211 3.289,-0.147C3.982,-1.889 4.86,-2.199 6.108,-1.021C9.341,2.032 13.151,3.151 17.498,2.769C17.972,2.727 18.46,2.807 18.931,2.749C21.241,2.464 22.884,3.179 23.844,5.476C24.715,7.559 26.355,8.622 28.751,8.544C30.5,8.487 31.988,8.112 32.57,6.333C33.531,3.396 35.936,2.125 38.511,1.266C42.018,0.097 45.198,-1.714 48.463,-3.351C50.442,-4.343 52.267,-5.652 54.118,-6.884C54.806,-7.342 55.466,-7.706 56.309,-7.61C56.771,-6.252 57.163,-4.867 57.711,-3.545C59.015,-0.396 59.552,2.849 59.383,6.259C59.282,8.3 59.449,10.354 59.496,12.402C57.746,14.043 55.449,12.818 53.553,13.524C51.224,14.391 48.837,14.231 46.453,14.234C30.959,14.251 15.464,14.253 -0.031,14.243C-2.256,14.242 -4.467,14.336 -6.662,13.577C-7.82,13.177 -9.189,13.392 -10.461,13.31C-11.57,13.238 -12.692,13.212 -13.779,13.009C-14.135,12.942 -14.4,12.384 -14.707,12.05C-14.493,11.855 -14.298,11.517 -14.063,11.487C-12.013,11.227 -10.097,10.21 -7.959,10.439C-5.99,10.65 -4.252,9.579 -2.347,9.355C-0.887,9.183 -0.244,8.051 0,6.685" style="fill:rgb(167,137,109);fill-rule:nonzero;"/>
                </g>
            </g>
        </g>
        <g id="Hoher-Stein.ai1" serif:id="Hoher Stein.ai">
        </g>
    </g>
</svg>
