<?xml version="1.0" encoding="UTF-8" standalone="no"?>
<!DOCTYPE svg PUBLIC "-//W3C//DTD SVG 1.1//EN" "http://www.w3.org/Graphics/SVG/1.1/DTD/svg11.dtd">
<svg width="100%" height="100%" viewBox="0 0 4961 3508" version="1.1" xmlns="http://www.w3.org/2000/svg" xmlns:xlink="http://www.w3.org/1999/xlink" xml:space="preserve" xmlns:serif="http://www.serif.com/" style="fill-rule:evenodd;clip-rule:evenodd;stroke-linejoin:round;stroke-miterlimit:2;">
    <g transform="matrix(1,0,0,1,2484.61,1756.39)">
        <g id="Kaktus-drei.ai" serif:id="Kaktus drei.ai" transform="matrix(1,0,0,1,-2480.31,-1753.94)">
            <g id="Ebene-1" serif:id="Ebene 1" transform="matrix(4.16667,0,0,4.16667,0,0)">
                <g transform="matrix(1,0,0,1,612.122,405.532)">
                    <path d="M0,-54.414C-2.828,-51.775 -6.276,-50.748 -10.045,-50.574C-13.231,-50.426 -16.399,-50.662 -19.683,-51.25C-19.874,-50.492 -20.121,-49.901 -20.16,-49.296C-20.455,-44.724 -20.223,-8.742 -19.91,-5.768C-17.943,-6.808 -17.033,-7.771 -16.434,-10.281C-15.583,-13.848 -14.864,-17.452 -14.261,-21.068C-13.861,-23.462 -13.113,-25.71 -12.119,-27.894C-11.791,-28.615 -11.386,-29.319 -10.908,-29.949C-9.676,-31.573 -7.893,-31.84 -6.309,-30.571C-5.58,-29.987 -4.884,-29.253 -4.448,-28.439C-3.702,-27.048 -2.916,-25.629 -2.878,-23.971C-0.678,-16.453 -2.299,-9.444 -5.827,-2.739C-8.557,2.452 -10.723,4.047 -23.111,10.514C-21.78,11.858 -20.592,13.094 -20.624,15.28C-20.864,31.573 -20.491,47.871 -20.86,64.167C-24.752,66.245 -28.304,63.191 -32.08,63.435C-33.288,63.101 -34.199,62.404 -34.757,61.269C-37.647,51.439 -38.807,41.301 -39.858,31.172C-41.408,16.239 -40.279,1.205 -41.062,-13.737C-41.863,-29.043 -42.266,-44.348 -41.717,-59.62C-41.077,-77.447 -41.102,-95.301 -39.863,-113.106C-39.437,-119.217 -36.961,-120.659 -31.505,-118.058C-28.841,-116.841 -27.972,-114.263 -26.881,-111.883C-25.913,-109.771 -25.058,-107.608 -24.154,-105.467C-22.26,-100.449 -21.966,-95.133 -21.245,-89.895C-20.746,-81.626 -21.121,-73.321 -20.157,-65.074C-18.828,-63.678 -17.23,-64.05 -15.729,-64.551C-13.882,-65.167 -12.34,-66.275 -11.462,-68.105C-9.871,-71.422 -8.778,-74.883 -8.729,-78.591C-8.682,-82.075 -8.739,-85.56 -8.75,-89.044C-8.751,-95.666 -11.48,-102.222 -9.232,-108.895C-6.786,-110.249 -6.441,-107.892 -6.048,-106.725C-2.46,-96.098 -0.007,-85.223 -1.042,-73.932C-1.509,-68.841 -3.91,-64.516 -8.612,-61.821C-9.956,-61.051 -11.289,-60.159 -11.289,-58.069C-8.816,-58.048 -7.817,-59.827 -6.555,-61.107C2.365,-70.159 2.308,-81.454 1.123,-92.906C0.385,-100.037 -0.868,-107.108 -3.139,-113.953C-3.591,-115.314 -3.999,-116.704 -3.506,-118.164C0.822,-120.154 3.088,-119.366 4.76,-114.671C7.883,-105.906 9.167,-96.741 10.081,-87.523C10.932,-78.939 9.444,-70.718 6.159,-62.789C4.795,-59.498 2.877,-56.6 0,-54.414" style="fill:rgb(63,129,128);fill-rule:nonzero;"/>
                </g>
                <g transform="matrix(1,0,0,1,580.617,466.145)">
                    <path d="M0,-178.671C-0.923,-178.913 -1.833,-179.26 -2.771,-179.376C-5.119,-179.666 -6.376,-178.718 -6.791,-176.344C-6.954,-175.409 -6.888,-174.434 -6.923,-173.477C-7.093,-168.715 -6.443,-163.912 -7.802,-159.205C-8.101,-158.169 -7.878,-156.981 -7.88,-155.863C-7.89,-149.952 -7.865,-144.042 -7.911,-138.132C-7.938,-134.798 -7.6,-131.444 -8.692,-128.164C-9.03,-127.149 -8.831,-125.946 -8.832,-124.83C-8.838,-112.05 -8.839,-99.271 -8.832,-86.492C-8.831,-84.741 -8.942,-82.988 -8.267,-81.292C-7.661,-79.766 -7.912,-78.133 -7.909,-76.545C-7.886,-65.682 -7.893,-54.82 -7.876,-43.957C-7.873,-41.89 -7.97,-39.834 -7.232,-37.805C-6.866,-36.798 -6.917,-35.598 -6.955,-34.49C-7.201,-27.278 -5.92,-20.254 -4.437,-13.25C-4.272,-12.474 -4.07,-11.68 -4.087,-10.899C-4.178,-6.865 -2.916,-3.067 -2.141,0.816C-6.997,2.541 -13.075,0.621 -16.489,-3.713C-17.344,-7.681 -16.579,-11.652 -16.562,-15.624C-16.473,-36.375 -16.519,-57.128 -16.524,-77.88C-16.524,-80.413 -16.439,-83.03 -20.325,-81.832C-20.804,-81.84 -21.3,-81.934 -21.76,-81.844C-26.897,-80.84 -31.674,-82.26 -36.116,-84.495C-45.079,-89.005 -52.233,-95.186 -55.003,-105.481C-56.387,-110.624 -56.916,-115.826 -57.458,-121.053C-57.824,-124.578 -57.161,-128.079 -56.358,-131.49C-55.38,-135.652 -53.007,-139.034 -49.669,-141.702C-49.348,-141.959 -48.767,-141.892 -48.307,-141.976C-50.241,-133.019 -50.525,-124.017 -48.596,-115.047C-47.083,-108.017 -44.61,-101.396 -38.801,-95.811C-37.706,-98.9 -38.909,-100.896 -40.047,-102.646C-47.017,-113.369 -49.457,-124.871 -46.369,-137.387C-45.875,-139.389 -46.832,-140.757 -48.012,-142.111C-47.061,-143.296 -45.71,-143.243 -44.497,-142.957C-42.48,-142.483 -40.556,-141.709 -39.08,-140.114C-37.159,-138.037 -36.17,-135.499 -35.823,-132.795C-35.378,-129.334 -34.741,-125.879 -35.258,-122.326C-35.673,-119.469 -34.976,-116.613 -34.64,-113.77C-34.52,-112.757 -33.399,-112.301 -32.435,-112.686C-31.17,-113.19 -30.319,-114.107 -29.797,-115.313C-28.84,-117.523 -28.221,-119.801 -28.271,-122.259C-28.341,-125.767 -28.184,-129.28 -28.3,-132.785C-28.393,-135.562 -27.598,-138.14 -26.912,-140.751C-26.759,-141.334 -26.369,-141.903 -25.958,-142.361C-25.118,-143.297 -23.121,-143.115 -22.647,-141.981C-22.037,-140.522 -21.426,-138.989 -21.247,-137.437C-20.202,-128.356 -20.34,-119.29 -22.42,-110.353C-22.992,-107.894 -24.098,-105.55 -25.66,-103.471C-26.213,-102.735 -25.957,-101.925 -25.219,-101.393C-22.767,-99.628 -19.905,-99.382 -17.027,-99.351C-16.437,-99.345 -15.861,-99.926 -15.801,-100.632C-15.706,-101.741 -15.672,-102.857 -15.668,-103.971C-15.628,-115.614 -15.439,-127.26 -15.624,-138.9C-15.746,-146.577 -14.915,-154.176 -14.378,-161.797C-14.144,-165.108 -13.306,-168.399 -12.501,-171.64C-12.085,-173.315 -11.287,-174.944 -10.41,-176.446C-8.215,-180.205 -5.497,-181.212 -1.171,-180.069C-0.474,-179.885 -0.234,-179.269 0,-178.671" style="fill:rgb(77,149,128);fill-rule:nonzero;"/>
                </g>
                <g transform="matrix(1,0,0,1,580.497,495.873)">
                    <path d="M0,-27.872C2.698,-28.281 5.193,-27.235 7.765,-26.764C8.666,-26.599 9.501,-26.078 10.471,-26.297C10.795,-26.528 11.123,-26.534 11.456,-26.317C13.159,-25.442 14.922,-24.804 16.883,-24.948C19.399,-24.774 21.444,-23.741 22.66,-21.479C24.595,-17.88 27.882,-16.51 31.633,-16.18C35.289,-15.857 38.744,-14.921 42.141,-13.637C43.717,-13.305 45.294,-12.973 46.87,-12.641C48.529,-10.842 52.075,-13.985 53.015,-10.297C51.211,-7.335 47.974,-7.117 45.122,-6.443C32.221,-3.395 19.099,-1.492 5.894,-0.777C-16.003,0.409 -37.746,-1.49 -59.271,-5.668C-62.16,-6.229 -65.393,-6.298 -67.388,-9.102C-67.407,-9.658 -67.278,-10.185 -67.013,-10.673C-66.705,-11.095 -66.327,-11.457 -65.898,-11.748C-65.696,-11.882 -65.483,-12.021 -65.278,-12.155C-61.901,-18.527 -56.783,-18.362 -50.703,-16.561C-42.927,-14.257 -34.995,-12.429 -26.904,-11.468C-25.357,-11.284 -23.797,-10.609 -22.329,-11.596C-22.12,-11.962 -22.144,-12.254 -22.336,-12.547C-23.222,-13.902 -25.792,-14.333 -24.94,-16.595C-24.209,-18.537 -22.152,-18.49 -20.449,-18.743C-15.057,-19.544 -9.933,-21.269 -4.818,-23.069C-2.401,-23.92 -0.641,-25.302 0,-27.872" style="fill:rgb(165,136,108);fill-rule:nonzero;"/>
                </g>
                <g transform="matrix(1,0,0,1,580.497,476.781)">
                    <path d="M0,-8.78C0.202,-8.537 0.363,-8.236 0.613,-8.062C1.586,-7.384 1.932,-6.513 0.902,-5.761C-0.496,-4.741 -1.839,-3.613 -3.556,-3.055C-9.746,-1.041 -15.819,1.402 -22.433,1.781C-23.016,1.815 -23.631,2.159 -24.132,2.504C-24.585,2.815 -24.448,3.363 -24.164,3.76C-23.653,4.472 -22.743,4.406 -22.057,4.766C-21.369,5.127 -20.728,5.632 -20.176,6.182C-19.123,7.231 -19.604,8.793 -21.071,9.133C-22.806,9.535 -24.549,9.396 -26.293,9.123C-35.707,7.648 -44.964,5.464 -54.163,3.013C-54.623,2.89 -55.096,2.817 -55.56,2.707C-58.751,1.95 -61.544,2.078 -63.181,5.6C-63.546,6.385 -64.558,6.87 -65.272,7.493C-65.549,7.28 -65.661,7.047 -65.607,6.795C-65.55,6.533 -65.482,6.402 -65.401,6.402C-64.386,4.939 -63.371,3.476 -62.357,2.013C-60.516,0.255 -58.826,-1.667 -56.752,-3.174C-54.931,-3.903 -53.617,-5 -52.637,-6.862C-49.588,-12.656 -45.672,-13.593 -40.277,-9.899C-38.78,-8.874 -37.969,-8.673 -36.844,-10.324C-31.754,-17.794 -30.163,-18.315 -21.547,-15.743C-21.116,-15.645 -20.694,-15.506 -20.28,-15.357C-19.277,-14.964 -18.223,-14.77 -17.161,-14.6C-16.507,-14.464 -15.969,-14.126 -15.517,-13.643C-11.269,-11.482 -6.796,-10.118 -2.02,-9.819C-1.558,-9.062 -0.769,-8.942 0,-8.78" style="fill:rgb(197,167,129);fill-rule:nonzero;"/>
                </g>
                <g transform="matrix(1,0,0,1,514.078,498.119)">
                    <path d="M0,-12.853C-0.137,-12.109 -0.545,-11.296 0.605,-10.941C4.721,-9.671 8.937,-8.843 13.18,-8.184C19.302,-7.233 25.441,-6.394 31.576,-5.529C32.52,-5.396 33.48,-5.351 34.435,-5.315C37.139,-5.214 39.841,-5.324 42.504,-4.531C43.69,-4.178 45.039,-4.33 46.315,-4.326C53.341,-4.303 60.368,-4.274 67.395,-4.308C70.734,-4.324 74.097,-4.079 77.372,-5.108C78.109,-5.34 78.959,-5.284 79.753,-5.254C84.093,-5.089 88.291,-6.079 92.527,-6.767C97.389,-7.556 102.27,-8.234 107.115,-9.115C111.333,-9.882 115.533,-10.797 119.35,-12.899C123.781,-15.032 128.251,-13.348 132.691,-12.952C133.488,-12.881 134.54,-12.382 134.746,-11.27C134.977,-10.024 133.906,-9.766 133.162,-9.244C132.39,-8.701 131.31,-8.796 130.673,-7.999L130.705,-8.022C130.077,-7.639 129.207,-7.767 128.718,-7.086C123.333,-4.567 117.631,-3.167 111.774,-2.327C106.252,-1.535 100.665,-1.159 95.238,0.247C94.622,0.406 93.981,0.497 93.346,0.541C77.551,1.645 61.737,2.179 45.922,1.264C39.574,0.896 33.246,0.156 26.957,-1.085C22.131,-2.037 17.149,-2.282 12.297,-3.274C6.811,-4.397 1.491,-6.067 -3.713,-8.12C-4.952,-8.86 -7.196,-9.296 -5.995,-11.281C-4.704,-13.414 -2.461,-14.083 0,-12.853" style="fill:rgb(237,188,102);fill-rule:nonzero;"/>
                </g>
                <g transform="matrix(1,0,0,1,591.953,381.583)">
                    <path d="M0,87.973C-0.328,87.981 -0.657,87.99 -0.985,87.996C-0.985,72.836 -0.986,57.679 -0.987,42.523C-0.987,41.406 -1.015,40.289 -0.994,39.172C-0.967,37.736 -1.369,36.662 -3.023,36.502C-4.2,36.389 -5.153,35.821 -5.833,34.876C-6.086,34.524 -6.252,34.035 -6.265,33.603C-6.281,33.042 -5.77,32.778 -5.294,32.767C-1.669,32.68 1.373,30.744 4.678,29.649C5.262,29.455 5.813,29.069 6.29,28.667C11.572,24.208 14.989,18.741 16.397,11.837C17.208,7.862 17.069,3.933 17.291,-0.023C18.097,0.591 18.575,1.489 18.74,2.4C19.797,8.225 20.748,14.125 19.332,19.972C17.131,29.052 11.944,35.408 2.264,37.201C1.798,37.288 1.337,37.407 0.878,37.529C0.728,37.569 0.594,37.668 0.124,37.907C-0.109,54.481 0.07,71.228 0,87.973" style="fill:rgb(83,150,130);fill-rule:nonzero;"/>
                </g>
                <g transform="matrix(1,0,0,1,612.122,285.079)">
                    <path d="M0,66.039C2.702,62.292 4.967,58.341 6.409,53.903C7.595,50.25 7.874,46.457 8.534,42.726C8.78,41.332 8.658,39.885 9.212,38.515C9.44,37.95 9.566,37.216 9.414,36.647C8.056,31.582 8.671,26.229 7.011,21.185C6.28,18.963 6.198,16.516 5.828,14.179C5.273,10.669 3.919,7.461 2.792,4.17C1.956,1.728 -0.185,1.254 -2.958,2.59C-5.075,5.328 -5.891,8.921 -8.65,11.237C-9.592,14.302 -9.824,17.291 -9.043,20.536C-8.196,24.058 -8.632,27.774 -8.75,31.409C-10.05,29.614 -9.687,27.462 -10.011,25.462C-10.673,21.376 -10.755,17.251 -10.479,13.138C-10.206,9.088 -8.923,5.376 -5.988,2.419C-3.68,0.093 0.978,0 3.569,2.008C5.776,3.719 6.862,6.209 8.404,8.384C14.794,22.067 14.813,42.14 8.448,56.224C6.804,58.745 5.733,61.63 3.51,63.786C2.478,64.787 1.587,65.934 0,66.039" style="fill:rgb(89,151,131);fill-rule:nonzero;"/>
                </g>
                <g transform="matrix(1,0,0,1,644.751,483.278)">
                    <path d="M0,6.841C0.546,5.517 2.022,5.391 2.948,4.554C3.432,4.116 3.328,3.33 2.776,2.958C1.531,2.119 0.15,1.928 -1.312,1.94C-4.651,1.965 -7.99,1.943 -11.326,1.941C-12.31,0.945 -13.598,0.996 -14.852,0.93C-15.802,0.879 -16.755,0.839 -17.383,-0.046C-11.323,-0.056 -5.26,-0.085 0.731,1.022C1.981,1.253 3.223,1.581 4.424,1.993C5.805,2.466 5.988,4.043 4.808,5.028C3.422,6.183 1.862,6.926 0,6.841" style="fill:rgb(243,203,134);fill-rule:nonzero;"/>
                </g>
                <g transform="matrix(1,0,0,1,514.078,487.958)">
                    <path d="M0,-2.692C-0.767,-2.68 -1.555,-2.781 -2.296,-2.635C-5.872,-1.933 -6.207,-0.782 -3.713,2.041C-4.026,2.043 -4.345,2.082 -4.653,2.041C-5.983,1.863 -7.156,1.372 -7.37,-0.114C-7.592,-1.652 -6.444,-2.446 -5.268,-2.877C-3.217,-3.63 -1.081,-4.154 1.019,-4.774C1.061,-4.411 1.104,-4.048 1.147,-3.684L0.903,-3.594C0.69,-3.347 0.46,-3.116 0.215,-2.901L0,-2.692Z" style="fill:rgb(246,212,153);fill-rule:nonzero;"/>
                </g>
                <g transform="matrix(1,0,0,1,581.361,392.722)">
                    <path d="M0,-68.791C0.002,-63.044 0.018,-57.296 -0.006,-51.548C-0.017,-48.849 0.153,-46.154 -0.751,-43.496C-1.144,-42.34 -0.939,-40.967 -0.943,-39.692C-0.957,-33.945 -0.966,-28.197 -0.941,-22.45C-0.93,-19.91 -1.136,-17.367 -0.216,-14.876C0.153,-13.878 -0.012,-12.666 -0.011,-11.551C0.002,-0.056 0.004,11.439 -0.007,22.934C-0.008,24.045 -0.032,25.171 -0.209,26.264C-0.34,27.069 -0.877,27.697 -1.78,27.831C-2.598,27.951 -3.565,27.111 -3.708,26.073C-3.816,25.286 -3.821,24.482 -3.827,23.685C-3.843,21.45 -3.83,19.215 -3.84,16.979C-3.849,15.07 -3.832,13.187 -4.461,11.306C-4.851,10.138 -4.773,8.788 -4.776,7.519C-4.797,-3.657 -4.789,-14.833 -4.788,-26.009C-4.788,-26.647 -4.891,-27.313 -4.749,-27.92C-3.089,-35.011 -4.125,-42.214 -3.834,-49.36C-3.743,-51.581 -3.896,-53.784 -3.163,-55.986C-2.727,-57.296 -2.896,-58.826 -2.893,-60.258C-2.873,-70.795 -2.885,-81.332 -2.867,-91.869C-2.864,-93.299 -2.777,-94.73 -2.662,-96.155C-2.645,-96.364 -2.275,-96.659 -2.031,-96.701C-1.801,-96.742 -1.316,-96.532 -1.295,-96.381C-0.891,-93.566 0.11,-90.879 0.043,-87.948C-0.102,-81.566 -0.002,-75.177 0,-68.791" style="fill:rgb(75,145,127);fill-rule:nonzero;"/>
                </g>
                <g transform="matrix(1,0,0,1,603.472,341.441)">
                    <path d="M0,-45.125C1.156,-48.138 1.933,-51.378 4.888,-53.317C5.145,-53.486 5.424,-53.622 5.692,-53.773C7.421,-48.318 9.006,-42.843 9.846,-37.151C10.541,-32.444 11.607,-27.795 11.476,-22.994C11.428,-21.239 11.39,-19.476 11.482,-17.724C12.047,-7.06 6.779,0.808 -0.646,7.64C-1.674,8.585 -2.827,8.648 -3.698,8.007C-4.67,7.29 -5.119,5.722 -4.633,4.557C-4.119,3.325 -3.155,2.519 -2.012,1.87C-0.769,1.165 0.538,0.517 1.637,-0.377C5.255,-3.32 6.312,-7.528 6.598,-11.852C6.838,-15.478 6.794,-19.116 5.858,-22.767C4.561,-27.822 4.434,-33.12 2.931,-38.179C2.201,-40.633 1.187,-42.898 0,-45.125" style="fill:rgb(77,147,128);fill-rule:nonzero;"/>
                </g>
                <g transform="matrix(1,0,0,1,532.605,372.409)">
                    <path d="M0,-48.374C0.636,-48.333 1.273,-48.303 1.908,-48.248C3.058,-48.148 3.598,-47.474 3.578,-46.358C3.57,-45.888 3.527,-45.387 3.358,-44.955C1.213,-39.442 1.715,-33.677 1.809,-27.971C1.837,-26.258 2.227,-24.475 2.823,-22.862C4.14,-19.295 5.283,-15.646 7.416,-12.415C8.551,-10.697 9.411,-8.798 10.424,-6.997C11.151,-5.704 11.401,-4.328 11.348,-2.861C11.296,-1.406 10.73,0 10.094,-0.005C9.009,-0.015 8.447,-0.878 7.777,-1.529C5.007,-4.22 2.789,-7.249 1.57,-10.993C0.69,-13.695 -0.972,-16.063 -1.451,-18.99C-2.141,-23.206 -3.208,-27.354 -3.07,-31.679C-2.995,-34.067 -2.949,-36.466 -3.079,-38.849C-3.268,-42.339 -2.257,-45.417 -0.293,-48.239C-0.295,-48.239 0,-48.374 0,-48.374" style="fill:rgb(64,130,128);fill-rule:nonzero;"/>
                </g>
                <g transform="matrix(1,0,0,1,514.293,484.362)">
                    <path d="M0,0.695C0.231,0.462 0.461,0.23 0.689,0C0.458,0.233 0.229,0.464 0,0.695" style="fill:rgb(237,188,102);fill-rule:nonzero;"/>
                </g>
                <g transform="matrix(1,0,0,1,555.365,470.925)">
                    <path d="M0,-11.561C0.872,-10.55 2.057,-10.089 3.289,-9.741C3.919,-9.564 4.495,-9.356 4.854,-8.77C3.413,-8.658 1.949,-8.589 0.696,-9.439C-0.928,-10.541 -2.514,-10.101 -4.285,-9.819C-7.937,-9.239 -10.041,-7.405 -10.485,-3.717C-10.657,-2.287 -11.412,-1.368 -12.884,-1.185C-14.282,-1.012 -15.587,-1.435 -15.97,-2.827C-16.542,-4.908 -17.997,-4.94 -19.663,-4.945C-23.912,-4.959 -25.072,-4.466 -26.423,-0.427C-27.337,2.303 -29.076,3.31 -31.583,3.699C-30.984,2.987 -30.497,2.115 -29.761,1.6C-28.543,0.749 -27.835,-0.3 -27.328,-1.691C-26.854,-2.991 -25.967,-4.144 -25.239,-5.348C-23.546,-8.146 -21.233,-10.122 -17.963,-10.867C-17.052,-11.074 -16.176,-11.439 -15.285,-11.731C-10.15,-15.26 -5.059,-14.822 0,-11.561" style="fill:rgb(217,192,159);fill-rule:nonzero;"/>
                </g>
                <g transform="matrix(1,0,0,1,560.299,463.182)">
                    <path d="M0,-0.988C1.069,-1.061 2.138,-1.13 2.833,-0.062C1.778,-0.031 0.676,0.142 0,-0.988" style="fill:rgb(217,192,159);fill-rule:nonzero;"/>
                </g>
            </g>
        </g>
        <g id="Kaktus-drei.ai1" serif:id="Kaktus drei.ai">
        </g>
    </g>
</svg>
