<?xml version="1.0" encoding="UTF-8" standalone="no"?>
<!DOCTYPE svg PUBLIC "-//W3C//DTD SVG 1.1//EN" "http://www.w3.org/Graphics/SVG/1.1/DTD/svg11.dtd">
<svg width="100%" height="100%" viewBox="0 0 4961 3508" version="1.1" xmlns="http://www.w3.org/2000/svg" xmlns:xlink="http://www.w3.org/1999/xlink" xml:space="preserve" xmlns:serif="http://www.serif.com/" style="fill-rule:evenodd;clip-rule:evenodd;stroke-linejoin:round;stroke-miterlimit:2;">
    <g transform="matrix(4.16667,0,0,4.16667,2519.73,1756.44)">
        <g id="TACO_Logo_Vektor.svg" transform="matrix(1,0,0,1,-643.65,-447.25)">
            <g>
                <path d="M377.4,389.4C391.3,388.9 405.1,388.3 419,387.8C430.3,387.4 441.5,387.7 452.8,388.1C460.3,388.3 467.9,388.4 475.4,388.5L478.1,388.5C484.4,388.6 484.4,388.6 485.9,382.4C488,373.7 491.8,365.5 494.4,357C503.1,329.5 514.4,303.1 525.1,276.4C533.4,255.4 542.4,234.7 551,213.9C554.3,205.8 558.2,197.8 563.5,190.8C570.3,181.8 579.6,176.1 589.7,171.5C596.6,168.4 603.8,166.5 611,164.4C624.9,160.2 639,160 653,162C671,164.5 685.8,173.4 696.6,188.4C703,197.2 706.8,207.3 711.8,216.8C722.4,236.7 728.9,258.3 737.9,279C743.3,291.3 748,303.9 753.7,316.1C754.5,317.8 755.4,318.5 757.4,318.4C772.9,317.9 788.4,317.6 803.9,319.2C811.4,320 819,319.8 826.4,320.7C843.5,322.8 860.1,327.1 876.7,331.8C896.6,337.5 916.1,344.3 934.9,353.1C940.5,355.7 945.8,358.9 951.1,361.8C953.2,362.9 954.1,364.6 953.6,367.2C950,387.3 940.5,404.6 928.5,420.6C917.6,435.1 903.5,446 887.2,453.9C881.3,456.7 875.4,459.5 869.7,462.6C860.2,467.6 850,470.4 839.7,473.2C838.3,473.6 837.2,473.1 836,472.7C823.1,468.1 810,464 796.8,460.7C782.5,457.1 767.9,455.6 753.3,453.8C730.4,450.9 707.8,453 685.2,456.3C654.7,460.8 625.5,469.9 596.5,479.9C581.2,485.2 566.2,491.3 551.2,497.6C546.2,499.7 541.3,502.2 536.5,504.6C533.6,506 530.8,506.5 527.6,506.3C522.6,506 517.6,505.9 512.6,506.1C496.4,506.9 480.3,505.8 464.1,505.1C449.2,504.4 434.6,501.6 420.2,497.8C410.8,495.3 401.2,493.3 391.8,490.7C370.1,484.9 350.8,474.5 334,459.4C323,449.5 313.7,438.5 307.7,424.9C306.2,421.5 305,418 304,414.4C301.9,407.1 305.1,400.8 313.2,397.5C325.2,392.7 337.6,390.6 350.5,390.3C359.5,390.1 368.4,389.5 377.4,389.1L377.4,389.4ZM320.7,440.1C322.2,441.9 323.1,443.2 324.2,444.4C333.9,455.3 344.9,464.6 357.3,472.3C365.4,477.3 373.8,481.6 383.8,480.7C384.6,480.6 385.4,480.7 386.2,480.8C404.3,483.3 422.3,482.5 440.2,479.2C458.9,475.8 477.6,472 495.9,466.6C505.3,463.8 515.1,462.9 524.4,459.9C526.9,459.1 529.4,458.4 532,457.7C547.9,453.5 563.6,448.7 578.7,442.3C586.6,438.9 594.3,435 602.4,432.1C632.1,421.5 662.1,412 692.4,403.3C703.2,400.2 714.1,397.2 725.3,395.9C736.6,394.7 747.9,393.4 759.1,391.9C775.9,389.6 792.6,389.6 809.4,391.6C825.4,393.5 841.1,396.7 856.5,401.6C867.7,405.2 878.9,408.9 889.8,413.4C898.9,417.2 907.7,421.7 916.6,426.1C919.3,427.5 919.3,424.8 920.3,423.8C921.5,422.7 920.2,422 919.4,421.6C911,417.2 902.7,412.5 894.1,408.5C888.6,405.9 882.6,404.2 876.8,402C874.5,401.1 872,400.7 869.8,399C879.3,390.7 888.7,382.7 898.7,374L898.7,408.4C908.8,402.4 918.3,396.7 928.4,390.7C927.2,400.2 926.2,409.1 925.1,417.9C925.3,418 925.6,418.2 925.8,418.3C926,417.9 926.2,417.5 926.5,417.1C932,409.5 937.1,401.6 941,393.1C941.7,391.6 941.8,390.9 940.1,390.1C935.2,387.7 930.4,385 925.4,382.7C916.4,378.5 907.9,373.5 898.5,370.4C881.7,364.8 864.8,359.8 847.4,356.1C835.1,353.5 822.9,351.4 810.3,350.6C805.9,350.3 801.4,350.6 797,350.1C786.6,348.9 776.3,349.1 765.9,350.3C755.9,351.5 745.8,352.4 735.8,353.6C730,354.3 724.1,354.8 718.4,356C704.9,358.9 691.5,362 678.2,366C658.2,372.1 638.6,379.5 619.4,387.8C600.2,396.2 580.9,404.6 561.3,412.2C544.6,418.6 527.4,423.1 510,427.3C500.9,429.5 492,432.3 482.8,433.7C470.8,435.6 459,438.4 447,440.1C439.4,441.2 431.9,442.5 424.3,443.2C420.2,443.6 416.1,443.4 412.1,443.8C404.5,444.4 396.8,445.5 389.2,445.7C374.2,446.2 359.3,445.2 344.4,444.1C340.9,443.8 337.4,443.3 334,442.7C329.8,441.8 325.6,440.7 320.7,440.1ZM544.4,269.6C534.7,287.4 521.5,302.9 516.4,323.3C592.4,298.2 669,297 746.4,315.9C744.8,312.4 743.4,309.1 741.8,305.9C739.3,300.9 738,295.4 734.7,290.9C730,284.5 725.4,278 720.7,271.6C718.2,268.2 715.7,264.7 712.9,260.9C711.2,270.7 709.7,279.8 708.1,289.4C700.4,279.2 694.2,268.6 687.2,257.8C685.2,267.9 683.1,277.2 680,286.6C674.9,278.4 670.3,270.3 665.5,261.8C661.7,271.3 658.9,280.5 654.7,289.6C650.3,280.3 646.1,271.3 641.7,261.9C638.2,271.2 634.2,279.8 630.4,288.5C625.5,280.5 622,272 618.5,263C614.1,272.1 609.9,280.8 604.9,289.6C601.2,280.7 597.6,272.2 594,263.6C589.4,272.7 584.9,281.6 580.2,291C577.2,282.9 574.3,275.4 571.3,267.4C565.2,277.7 559.5,287.6 553.5,297.8C550.3,288.2 547.4,279.2 544.4,269.6ZM485,397.6C479.4,396.7 474.5,396.7 469.7,396.7C445.3,396.7 420.9,396 396.5,397.5C384.3,398.3 372,397.9 359.7,398.1C348.6,398.3 337.7,399.5 326.9,401.6C322.8,402.4 318.9,403.6 315.3,406.2C323.2,409 331.1,409.8 339.1,410.8C344.9,411.5 350.7,412.2 356.6,412.6C363.7,413.1 370.8,414.4 377.9,414.5C394,414.9 410.2,414.7 426.2,412.5C436.8,411 447.4,409.5 457.8,407C466.8,404.7 475.7,402.1 485,397.6ZM544,251.3C548.7,249.4 553.6,248.3 558.4,247.2C563.7,245.9 569,244.4 574.4,243.4C583,241.8 591.6,240.3 600.2,239.1C609.8,237.8 619.3,236.1 629,236.2C635.8,236.3 642.6,236.2 649.4,236.6C658.7,237.2 667.9,238 677.1,239.6C690,241.8 702.7,245.1 714.8,250.2C716,250.7 717.1,251.8 718.7,251.4C717.6,249 716.4,246.8 715.4,244.5C714.6,242.6 713.4,241.7 711.4,241.1C698.9,237.5 686.2,234.7 673.3,232.8C663.9,231.4 654.4,230.5 645,230.4C627.7,230.2 610.5,230.6 593.3,233.4C578.9,235.8 564.9,239.4 551,243.7C546.8,244.9 544.8,247.2 544,251.3ZM705.9,222.3C705.8,219.9 704.4,218 704,215.9C703.9,215.4 703.3,215.2 702.8,215C683.9,209.5 664.7,206.6 645,206.3C635.8,206.2 626.5,206.5 617.3,207.3C610.1,207.9 602.8,207.8 595.7,209.2C584.4,211.3 572.9,213.2 561.8,216.6C557.3,218 556,219.5 555.5,223.9C605.4,210.1 655.5,209.5 705.9,222.3Z" style="fill:rgb(1,1,1);fill-rule:nonzero;"/>
                <path d="M893.1,617.6C886.3,635.2 876.2,650.4 859.8,660.5C852.1,665.3 843.6,667.8 834.4,667.5C834.7,666.3 833.7,666 833.1,665.4C826.6,659.6 821.3,652.9 817.2,645.2C811.7,634.8 809.6,623.5 808.9,612C808.3,600.9 809,589.9 811.3,579C813.5,568.3 817.4,558.1 820.3,547.7C823.3,536.9 825.4,526 825.1,514.8C825,512.4 825.5,509.7 823.4,507.7C828.7,504.7 834.3,502.2 840.4,501.3C838.9,507.6 838.3,514 839.5,520.4C841.7,532.4 847.1,542.8 855.8,551.4C861,556.6 867.1,560.8 871.9,566.3C880.4,575.9 886.4,586.7 889,599.4C890.3,605.5 891.8,611.5 893.1,617.6ZM854.2,578.6C854.4,575.8 853.7,571.7 852.3,567.9C851,564.5 849.5,560.9 845.3,560.3C841,559.7 838.4,562.8 836.4,566C830.1,576.4 828.8,587.6 832.4,599.2C833.5,602.8 835.3,606.5 839.6,607C843.9,607.5 846.3,604.3 848.4,601.2C852.6,594.7 854.2,587.5 854.2,578.6Z" style="fill:rgb(116,156,104);fill-rule:nonzero;"/>
                <path d="M637.1,649.1C640.7,658.9 644.4,668.7 648,678.6C645.4,678.2 642.9,679.3 640.2,678.9C633,678 626.1,675.9 619.1,674C609.6,671.4 600.2,670 590.6,673.6C589.9,673.9 589.2,673.9 589,674.8C588.3,674.1 587.6,674.3 586.8,674.4C582.6,675.1 578.4,675.9 574.2,676.4C572.1,676.7 571,677.5 570.7,679.6C569.8,684.9 568.7,690.1 567.8,695.3C567.2,699.3 565.7,702.4 561.3,703.1C561.1,701.9 560.3,701 559.6,700C555.5,694.5 552.5,688.4 550.5,681.8C545.5,665.6 543.4,649 542.8,632.1C542.5,623.1 542.9,614 541.7,605C540.7,598.2 539.3,591.6 535.9,585.6C535,584 534.1,582.4 531.9,582.4C533.4,573.2 535,564.1 536.5,554.9C536.6,554.5 536.7,554 536.7,553.6C537.6,547.8 537.7,547.8 543.4,546.7C544.8,546.4 546.2,546.1 547.6,545.8C547.6,547 547.9,548.3 548.9,548.9C551,550.2 552.6,552.1 554.6,553.5C560.9,558.1 564.3,564.6 566.7,571.8C570.2,582.6 574.8,592.9 580,603C584,610.7 589.1,617.8 594.3,624.8C602.3,635.5 612,643.9 625.3,647.4C629.1,648.5 632.9,650.2 637.1,649.1ZM571.7,617L571.2,617C570.9,621.9 570.5,626.8 570.2,631.6C570.2,632.2 569.8,633.2 570.6,633.2C572.8,633 574.9,632.5 577,632C577.8,631.8 577.6,631.2 577.4,630.7C577.3,630.5 577.3,630.4 577.2,630.2C575.4,625.8 573.5,621.4 571.7,617Z" style="fill:rgb(188,64,58);fill-rule:nonzero;"/>
                <path d="M749.9,595.5C744.8,595.5 739.8,595.6 734.7,595.6C730.8,591.2 727.5,586.4 724.7,581.2C722.6,577.4 720,573.9 715.7,572.2C715,571 714.4,569.8 713.6,568.7C711.1,565.5 707.3,565.2 704.3,567.9C699.6,572.1 697.2,577.7 695.4,583.6C692.3,593.6 691.1,603.8 693.9,614.1C694.5,616.3 695.4,618.4 696.9,620.2C699.1,622.8 701.7,623.2 704.6,621.4C707,619.9 708.6,617.8 710.2,615.5C710.9,614.5 711.5,613.3 712.9,612.9C716.9,618.2 722.5,621.2 728.3,624.1C735.6,627.7 741.1,633.1 743.7,641.1C744.7,644.3 744.5,647.7 745.9,650.8C739.4,659.4 731.7,666.8 721.7,671.4C721.6,665.7 718.5,661.7 714.3,658.5C706.3,652.3 697.5,647.2 688.5,642.5C680.3,638.2 674.4,631.9 671.8,622.7C668.6,611.6 668.8,600.4 670.8,589.1C672.6,578.7 675.7,568.5 679.1,558.5C681.3,552.2 683.2,545.7 682.5,538.9C682.1,534.9 681.2,531 677.6,528.5C686.6,519.2 697.3,513 710.3,511.2C710.3,514.4 710.3,517.6 710.4,520.7C710.5,530.5 713.5,539.4 719.6,547.1C726,555.3 732.6,563.3 739.1,571.5C744.4,578.7 748.3,586.5 749.9,595.5Z" style="fill:rgb(223,175,92);fill-rule:nonzero;"/>
                <path d="M480.8,717.3C476,719.4 470.9,720 465.9,721C456.1,722.9 446.2,724.2 436.2,724.7C435.4,724.7 434.6,724.9 433.8,724.8C428.6,724.7 427.4,723.5 427.3,718.3C426.9,686.4 426.4,654.6 426,622.7C426,620.2 425.8,617.8 425.8,615.4C425.8,613.8 425.2,613.5 423.7,613.5C417.2,613.6 410.6,613.6 404.1,613.6C400.5,613.6 399.6,612.8 399.6,609.3C399.5,595.8 398.8,582.3 398,568.8C397.8,565.1 400,563.7 404.8,564.1C405,565.3 406.1,565.6 406.9,566.1C419,572.9 427.1,583.5 433.8,595.3C439.1,604.8 441.8,615.3 444.1,625.8C446.2,635.5 447.6,645.3 449.6,655C453.4,673.1 459,690.5 470.6,705.4C473.8,709.6 476.8,713.8 480.8,717.3Z" style="fill:rgb(72,116,74);fill-rule:nonzero;"/>
                <path d="M637.1,649.1C632.9,650.2 629.1,648.6 625.2,647.5C612,644 602.2,635.6 594.2,624.9C589,617.9 583.9,610.9 579.9,603.1C574.7,593 570.2,582.7 566.6,571.9C564.2,564.7 560.8,558.3 554.5,553.6C552.6,552.2 551,550.2 548.8,549C547.7,548.4 547.4,547.1 547.5,545.9C556.6,543.9 565.7,541.8 574.7,539.5C580,538.1 585.3,536.9 590.6,535.6C594.7,534.6 595.6,535.2 597.1,539.2C601.3,550.5 605.5,561.8 609.6,573.1C617.8,595.3 626,617.5 634.1,639.8C635.3,642.8 636.7,645.8 637.1,649.1Z" style="fill:rgb(209,87,82);fill-rule:nonzero;"/>
                <path d="M677.4,528.5C681,531 681.9,534.9 682.3,538.9C683,545.8 681.1,552.2 678.9,558.5C675.5,568.5 672.4,578.6 670.6,589.1C668.6,600.3 668.4,611.6 671.6,622.7C674.2,631.8 680.1,638.2 688.3,642.5C697.3,647.2 706.1,652.3 714.1,658.5C718.3,661.8 721.4,665.8 721.5,671.4C721.4,671.5 721.3,671.5 721.2,671.5C720.9,671.6 720.7,671.8 720.4,671.9C704.1,680.6 683.3,677.5 669.2,664.3C658.9,654.6 653.1,642.5 650.3,628.9C645.3,604.3 647.5,580.3 657.6,557.3C662.1,547.2 667.7,537.6 675.8,529.7C676.4,529.3 677,528.9 677.4,528.5Z" style="fill:rgb(203,148,73);fill-rule:nonzero;"/>
                <path d="M823.5,507.7C825.6,509.7 825.1,512.4 825.2,514.8C825.5,526 823.4,536.9 820.4,547.7C817.5,558.2 813.6,568.4 811.4,579C809.1,589.9 808.3,600.9 809,612C809.7,623.5 811.8,634.8 817.3,645.2C821.4,652.9 826.7,659.6 833.2,665.4C833.9,666 834.8,666.4 834.5,667.5C823.6,667.9 814.7,663.2 806.8,656.1C794.1,644.7 787.5,630.1 784.3,613.6C777.6,579.5 785.4,549 806.9,522C811.4,516.3 816.8,511.1 823.5,507.7Z" style="fill:rgb(72,116,74);fill-rule:nonzero;"/>
                <path d="M480.8,717.3C476.9,713.8 473.8,709.5 470.6,705.4C459,690.5 453.3,673.1 449.6,655C447.6,645.3 446.1,635.5 444.1,625.8C441.8,615.3 439.1,604.8 433.8,595.3C427.2,583.5 419.1,572.9 406.9,566.1C406.1,565.6 405,565.3 404.8,564.1C413.5,564 422.1,563.9 430.8,563.8C434.1,563.8 437.5,563.6 440.8,563.5C443.2,565.4 444.3,568 445.7,570.6C450.7,580.1 452.8,590.5 455.5,600.7C458.9,613.6 462.7,626.3 470,637.7C473.8,643.5 477.9,649.1 483.5,653.5C484,672.2 484.5,691 485.1,709.7L485.1,712.4C485,716.1 484.7,716.4 480.8,717.3Z" style="fill:rgb(116,156,104);fill-rule:nonzero;"/>
                <path d="M483.4,653.4C477.8,649.1 473.7,643.5 469.9,637.6C462.6,626.3 458.8,613.5 455.4,600.6C452.7,590.4 450.6,580 445.6,570.5C444.3,568 443.1,565.3 440.7,563.4C444.3,562.2 448.1,562.7 451.7,562.4C463.3,561.3 475,560.3 486.4,557.8C491.6,556.6 496.8,555.6 502.1,554.4C506,553.6 508.1,555.1 508.3,559C508.5,563.4 508.5,567.9 508.7,572.3C509.2,581.2 509.3,590.1 509.5,599C509.6,602.8 509.2,603.5 505.5,604.7C499.7,606.6 493.7,607.5 487.7,608.5C482.6,609.4 482.5,609.2 482.7,614.4C482.9,624.2 483.1,634 483.4,643.8C483.5,647.2 484.2,650.3 483.4,653.4Z" style="fill:rgb(168,203,146);fill-rule:nonzero;"/>
                <path d="M893.1,617.6C891.8,611.5 890.3,605.5 889.1,599.4C886.6,586.7 880.6,575.9 872,566.3C867.1,560.8 861.1,556.6 855.9,551.4C847.2,542.8 841.8,532.4 839.6,520.4C838.4,514 839,507.6 840.5,501.3C850.8,498.9 860.6,499.7 869.9,505.2C881.4,512.1 888.3,522.7 893.4,534.7C899.8,549.9 902.2,565.9 901,582.3C900.2,593.8 898.4,605.1 894,615.9C893.8,616.5 893.4,617.1 893.1,617.6Z" style="fill:rgb(168,203,146);fill-rule:nonzero;"/>
                <path d="M531.8,582.5C534,582.5 534.9,584.1 535.8,585.7C539.3,591.7 540.7,598.3 541.6,605.1C542.9,614.1 542.4,623.2 542.7,632.2C543.3,649 545.4,665.7 550.4,681.9C552.4,688.4 555.4,694.5 559.5,700.1C560.2,701 561,701.9 561.2,703.2C556.9,705.6 552,705.8 547.4,706.6C536.1,708.6 524.9,710.6 513.6,712.5C509.9,713.1 508.5,711.6 509.2,707.9C514.1,680.1 519.1,652.3 523.8,624.5C526.1,611.1 528.9,597.8 531.3,584.4C531.5,583.7 531.7,583.1 531.8,582.5Z" style="fill:rgb(130,36,32);fill-rule:nonzero;"/>
                <path d="M796.7,483.9C791.2,484.9 785.7,486.1 780.2,487C762.4,489.9 744.6,493.2 726.8,495.5C709.8,497.7 692.9,500.5 675.8,501.8C660,503 644.2,504.4 628.3,505.6C615.3,506.5 602.2,506.3 589.1,506.3C589.1,506.2 589.1,506.3 589.1,506.4C589.1,506.5 589.3,506.5 589.3,506.5C590.1,505.4 591.4,505.2 592.5,504.8C616.9,495.6 641.6,487.5 667,482C690,477 713.3,473.4 737,474.7C756.3,475.7 775.6,477.8 794.3,482.8C795.1,483 795.9,483.3 796.6,483.5C796.7,483.6 796.7,483.8 796.7,483.9Z" style="fill:rgb(3,3,2);fill-rule:nonzero;"/>
                <path d="M749.9,595.5C748.3,586.6 744.4,578.7 738.8,571.6C732.3,563.5 725.7,555.4 719.3,547.2C713.3,539.5 710.2,530.6 710.1,520.8C710.1,517.6 710.1,514.4 710,511.3C719.4,508.3 727.6,511.6 735.7,515.8C742.5,519.4 747,524.8 750.4,531.6C756.2,542.8 759.5,554.6 760.9,567C761.5,572.9 762.1,578.7 761.9,584.6C761.8,587 761.6,589.5 761.3,591.9C761.1,593.6 760.2,594.8 758.2,595.2C755.5,595.7 752.7,595.7 749.9,595.5Z" style="fill:rgb(248,211,144);fill-rule:nonzero;"/>
                <path d="M589,674.7C589.1,673.8 589.9,673.8 590.6,673.5C600.2,669.9 609.6,671.3 619.1,673.9C626.1,675.8 632.9,677.9 640.2,678.8C642.9,679.1 645.4,678.1 648,678.5C648.1,678.6 648.2,678.6 648.2,678.7C651.6,685.5 651.3,686 643.9,687.7C630.5,690.8 617,693.5 603.5,695.7C599.7,696.3 598.5,695.7 596.9,692.2C594.3,686.4 591.7,680.6 589,674.7Z" style="fill:rgb(130,36,32);fill-rule:nonzero;"/>
                <path d="M745.8,650.8C744.4,647.7 744.7,644.3 743.6,641.1C741,633.1 735.5,627.7 728.2,624.1C722.4,621.2 716.8,618.2 712.8,612.9C715.6,611.8 718.5,611.9 721.3,612.1C729.1,612.4 736.9,612.7 744.6,613.1C749.7,613.4 754.7,613.7 759.8,614.1C762,614.2 762.7,615.6 762.5,617.6C762.3,619.9 761.6,622 760.8,624.1C757.5,633.2 752.9,641.6 747.2,649.4C746.9,650 746.5,650.7 745.8,650.8Z" style="fill:rgb(248,211,144);fill-rule:nonzero;"/>
                <path d="M715.7,572.2C720,573.9 722.6,577.4 724.7,581.2C727.5,586.4 730.8,591.2 734.7,595.6C729.4,595.7 724.1,595.9 718.7,596C716.1,596 715,594.6 715.1,592.1C715.2,588.9 716,585.7 716.3,582.4C716.6,578.9 716.3,575.6 715.7,572.2Z" style="fill:rgb(203,148,73);fill-rule:nonzero;"/>
                <path d="M859.3,362.3C861.3,370 863.2,377.4 865.1,384.8C866.1,388.6 867.1,392.5 868.1,396.3C868.5,397.9 868.9,399 866.4,398.2C857.7,395.6 849,393.3 840.3,390.8C839.4,390.5 838.6,390.4 839.5,389.1C846,380.4 852.5,371.5 859.3,362.3Z" style="fill:rgb(6,5,5);fill-rule:nonzero;"/>
                <path d="M799.3,385.1C788.7,384.1 778.7,383.9 768.5,385.1C772,374.5 775.3,364.3 778.9,353.5C785.7,364.1 792.4,374.3 799.3,385.1Z" style="fill:rgb(6,5,5);fill-rule:nonzero;"/>
                <path d="M836.7,390C827.1,388.5 817.8,387 808,385.4C809.8,382.1 811.6,378.8 813.4,375.6C816.5,370 819.7,364.4 822.8,358.8C823.1,358.2 823.3,357.5 824,357.5C824.9,357.5 824.8,358.4 825,358.9C828.8,368.8 832.6,378.8 836.4,388.8C836.6,389 836.6,389.4 836.7,390Z" style="fill:rgb(6,5,5);fill-rule:nonzero;"/>
                <path d="M742.5,357.4C748.3,366.8 754.1,376.2 760.1,386C754.9,386.6 750,387.2 745.1,387.8C741.4,388.2 737.7,388.8 734,389C731.7,389.2 731.6,388.4 732.2,386.6C735.1,378.2 738,369.7 740.9,361.3C741.4,360 741.9,358.8 742.5,357.4Z" style="fill:rgb(6,5,5);fill-rule:nonzero;"/>
                <path d="M406.1,448.4C411.9,457.2 417.7,466 423.6,474.9C421.1,475.1 418.7,475.3 416.2,475.4C410.2,475.7 404.3,475.9 398.3,476.1C396.3,476.2 395.8,475.7 396.6,473.7C399.4,466.5 402,459.2 404.8,451.9C405.2,450.8 405,449.4 406.1,448.4Z" style="fill:rgb(6,5,5);fill-rule:nonzero;"/>
                <path d="M455.3,470.4C446.3,472.1 437.8,474 428.8,475C431.7,465.6 434.6,456.4 437.5,447.2C438.2,445 439.1,446.9 439.6,447.5C442.2,451.2 444.7,454.9 447.3,458.7C449.9,462.5 452.5,466.3 455.3,470.4Z" style="fill:rgb(6,5,5);fill-rule:nonzero;"/>
                <path d="M726.6,389.8C717.7,391.3 709,392.2 700.1,394.6C703.6,384.3 707,374.4 710.5,364C716,372.8 721.3,381.2 726.6,389.8Z" style="fill:rgb(6,5,5);fill-rule:nonzero;"/>
                <path d="M695.1,396.3C687.5,398.3 680.5,401 673.3,403.2C672.4,403.5 671.2,404.3 671.7,402.2C673.5,393.2 675.2,384.3 676.9,375.3C677,374.6 676.8,373.8 677.9,373.6C678.7,373.5 678.9,374 679.3,374.6C684.5,381.7 689.7,388.8 695.1,396.3Z" style="fill:rgb(6,5,5);fill-rule:nonzero;"/>
                <path d="M636.5,414.1C628.5,417.5 621,419.6 613.3,422C614.1,413.2 614.8,404.6 615.5,396.1C615.5,395.6 615.4,394.9 615.9,394.6C616.4,394.3 616.7,394.7 617,395C623.4,401.2 629.8,407.5 636.5,414.1Z" style="fill:rgb(6,5,5);fill-rule:nonzero;"/>
                <path d="M552.4,443.4C552.4,435.7 553.6,427.4 553.3,419.1C553.3,418.7 553.4,418.4 553.7,418.2C554.1,418 554.3,418.4 554.6,418.6C560.6,424.7 567.2,430.1 573.5,435.8C575.1,437.2 575,437.9 573,438.5C566.7,440.7 560.3,442.9 554,445.1C552.9,445.6 551.7,446.1 552.4,443.4Z" style="fill:rgb(6,5,5);fill-rule:nonzero;"/>
                <path d="M486.3,463.5C478.3,465.4 470.5,467.2 462.3,469.1C465.5,459.3 468.4,450.1 471.6,440.4C476.5,448.1 481.3,455.6 486.3,463.5Z" style="fill:rgb(6,5,5);fill-rule:nonzero;"/>
                <path d="M582.9,433.8C583.2,424.5 583.5,415.5 583.8,406.1C591.1,412.3 598.3,418.3 605.7,424.6C597.7,427.3 590.6,430.8 582.9,433.8Z" style="fill:rgb(6,5,5);fill-rule:nonzero;"/>
                <path d="M644.4,385.9C651.1,392.3 657.8,398.7 664.9,405.5C656.9,407.9 649.7,410 641.9,412.3C642.8,403.1 643.6,394.3 644.4,385.9Z" style="fill:rgb(6,5,5);fill-rule:nonzero;"/>
                <path d="M545.7,447.9C537.9,450 530.6,452 522.9,454.2C524,449 525.1,444 526.1,439C526.8,435.5 527.6,431.9 528.2,428.4C528.3,428 528,427.5 528.6,427.3C529.2,427.1 529.3,427.6 529.6,427.9C534.9,434.4 540.2,441 545.7,447.9Z" style="fill:rgb(6,5,5);fill-rule:nonzero;"/>
                <path d="M493.5,461.4C496,452.7 498.4,444.3 500.8,436C500.9,435.5 501,434.9 501.7,434.8C502.4,434.7 502.5,435.4 502.8,435.9C506.8,441.7 510.7,447.6 514.6,453.4C516.3,456 516.4,456.1 513.4,456.8C507,458.3 500.5,459.8 493.5,461.4Z" style="fill:rgb(6,5,5);fill-rule:nonzero;"/>
                <path d="M390.7,475.4C383.7,474.6 377,474.5 370.3,474.3C368.1,474.3 367.8,473 368.3,471.2C370,464.7 371.9,458.2 374.2,451.8C374.4,451.4 374.4,450.9 375,450.8C375.3,450.8 375.6,450.9 375.9,451.3C380.7,459.4 385.6,467.2 390.7,475.4Z" style="fill:rgb(6,5,5);fill-rule:nonzero;"/>
            </g>
        </g>
        <g id="TACO_Logo_Vektor.svg1" serif:id="TACO_Logo_Vektor.svg">
        </g>
    </g>
</svg>
