<?xml version="1.0" encoding="UTF-8" standalone="no"?>
<!DOCTYPE svg PUBLIC "-//W3C//DTD SVG 1.1//EN" "http://www.w3.org/Graphics/SVG/1.1/DTD/svg11.dtd">
<svg width="100%" height="100%" viewBox="0 0 4961 3508" version="1.1" xmlns="http://www.w3.org/2000/svg" xmlns:xlink="http://www.w3.org/1999/xlink" xml:space="preserve" xmlns:serif="http://www.serif.com/" style="fill-rule:evenodd;clip-rule:evenodd;stroke-linejoin:round;stroke-miterlimit:2;">
    <g transform="matrix(1.40032,0,0,1.40032,2488.95,1750.54)">
        <g id="Großer-Vogel.ai" serif:id="Großer Vogel.ai" transform="matrix(1,0,0,1,-1753.94,-1240.16)">
            <g transform="matrix(4.16667,0,0,4.16667,1550.24,1109.02)">
                <g id="Ebene-1" serif:id="Ebene 1">
                    <path d="M0,1.484C5.939,-1.092 11.542,-2.794 17.482,0.205C18.657,0.798 19.565,0.616 20.575,-0.03C21.377,-0.543 22.24,-0.961 23.085,-1.404C27.828,-3.894 29.919,-4.322 35.897,-4.04C36.03,-3.16 35.28,-3.145 34.773,-2.917C29.845,-0.693 25.026,1.748 20.43,4.598C18.796,5.611 17.395,5.806 15.586,4.779C12.359,2.946 8.717,2.444 5.039,2.203C3.498,2.103 1.868,2.507 0,1.484" style="fill:rgb(56,50,50);fill-rule:nonzero;"/>
                </g>
            </g>
        </g>
        <g id="Großer-Vogel.ai1" serif:id="Großer Vogel.ai">
        </g>
    </g>
</svg>
