<?xml version="1.0" encoding="UTF-8" standalone="no"?>
<!DOCTYPE svg PUBLIC "-//W3C//DTD SVG 1.1//EN" "http://www.w3.org/Graphics/SVG/1.1/DTD/svg11.dtd">
<svg width="100%" height="100%" viewBox="0 0 4961 3508" version="1.1" xmlns="http://www.w3.org/2000/svg" xmlns:xlink="http://www.w3.org/1999/xlink" xml:space="preserve" xmlns:serif="http://www.serif.com/" style="fill-rule:evenodd;clip-rule:evenodd;stroke-linejoin:round;stroke-miterlimit:2;">
    <g transform="matrix(1,0,0,1,2479.7,1756.39)">
        <g id="Irgendeine-Pflanze.ai" serif:id="Irgendeine Pflanze.ai" transform="matrix(1,0,0,1,-2480.31,-1753.94)">
            <g id="Ebene-1" serif:id="Ebene 1" transform="matrix(4.16667,0,0,4.16667,0,0)">
                <g transform="matrix(1,0,0,1,609.463,445.912)">
                    <path d="M0,23.753C-1.601,23.766 -3.202,23.779 -4.803,23.793C-5.734,23.768 -6.666,23.744 -7.597,23.719C-8.091,23.105 -8.803,22.945 -9.515,22.724C-10.638,22.374 -11.76,21.972 -12.523,20.98C-8.752,18.612 -4.46,20.993 -0.562,19.681C0.015,19.487 0.703,19.675 1.328,19.601C3.572,19.334 6.639,20.441 7.591,17.591C8.584,14.616 6.651,12.159 4.512,10.115C2.613,8.301 0.013,7.856 -2.212,6.683C-4.336,5.563 -6.687,4.384 -4.715,1.286C-2.125,-0.04 0.567,0.372 3.265,0.789C4.36,1.144 5.297,1.701 5.807,2.795C6.775,4.722 7.957,6.574 8.662,8.593C9.839,11.96 10.922,15.377 11.48,18.924C10.521,19.878 9.563,20.832 8.604,21.786C6.226,21.975 3.992,22.656 1.874,23.739C1.249,23.744 0.624,23.748 0,23.753" style="fill:rgb(202,177,141);fill-rule:nonzero;"/>
                </g>
                <g transform="matrix(1,0,0,1,624.9,445.502)">
                    <path d="M0,-30.337C1.069,-29.55 1.087,-28.483 0.7,-27.38C0.284,-26.193 -0.225,-25.04 -0.121,-23.74C-1.799,-19.991 -4.698,-17.034 -6.779,-13.529C-8.034,-11.415 -10.027,-9.738 -11.689,-7.864C-12.108,-7.392 -12.61,-6.969 -12.921,-6.434C-13.122,-6.087 -13.23,-5.454 -13.042,-5.177C-12.834,-4.871 -12.209,-4.633 -11.823,-4.699C-10.274,-4.967 -8.745,-5.35 -7.215,-5.717C-6.15,-5.973 -5.097,-6.274 -4.038,-6.554C-3.311,-6.977 -2.592,-7.005 -1.883,-6.51C-4.159,-2.793 -12.858,0.028 -16.395,-1.787C-17.486,-2.347 -18.062,-3.195 -18.08,-4.417C-18.035,-5.135 -17.783,-5.777 -17.349,-6.345C-16.821,-7.007 -16.145,-7.5 -15.433,-7.939C-15.131,-8.146 -14.809,-8.339 -14.497,-8.529C-14.359,-8.633 -14.205,-8.728 -14.066,-8.832C-13.814,-9.054 -13.55,-9.272 -13.304,-9.501C-13.2,-9.629 -13.083,-9.749 -12.979,-9.876C-12.804,-10.153 -12.619,-10.426 -12.448,-10.707C-12.298,-11.003 -12.122,-11.281 -11.937,-11.555C-11.749,-11.827 -11.535,-12.078 -11.311,-12.318C-11.2,-12.437 -11.081,-12.55 -10.971,-12.67C-10.753,-12.907 -10.518,-13.129 -10.284,-13.349C-10.174,-13.463 -10.055,-13.57 -9.945,-13.684C-9.737,-13.918 -9.516,-14.143 -9.303,-14.372C-9.314,-14.38 -9.009,-14.736 -9.02,-14.744C-8.864,-15.016 -8.699,-15.281 -8.545,-15.555C-8.415,-15.847 -8.25,-16.116 -8.065,-16.374C-7.892,-16.642 -7.687,-16.882 -7.462,-17.106C-7.47,-17.112 -7.126,-17.437 -7.135,-17.444C-6.928,-17.676 -6.705,-17.894 -6.485,-18.113C-6.494,-18.121 -6.175,-18.46 -6.186,-18.468C-5.915,-18.858 -5.695,-19.275 -5.49,-19.706C-5.358,-20.018 -5.204,-20.313 -5.047,-20.611C-4.828,-21.091 -4.608,-21.566 -4.367,-22.041C-4.19,-22.391 -3.99,-22.716 -3.781,-23.029C-2.875,-24.313 -3.867,-24.333 -4.735,-24.441C-5.748,-25.267 -5.458,-26.186 -4.948,-27.124C-4.722,-27.442 -4.447,-27.717 -4.137,-27.956C-3.666,-28.264 -3.142,-28.466 -2.609,-28.633C-2.29,-28.782 -1.968,-28.933 -1.652,-29.09C-1.054,-29.445 -0.559,-29.935 -0.017,-30.365L0,-30.337Z" style="fill:rgb(128,168,139);fill-rule:nonzero;"/>
                </g>
                <g transform="matrix(1,0,0,1,615.342,440.637)">
                    <path d="M0,9.07C-0.813,8.931 -1.624,8.789 -2.139,8.016C-2.022,7.266 -1.603,6.724 -1.02,6.293C2.69,4.796 4.599,0.263 9.047,0C9.498,0.682 9.398,1.336 8.956,1.974C6.135,4.557 3.374,7.22 0,9.07" style="fill:rgb(128,168,139);fill-rule:nonzero;"/>
                </g>
                <g transform="matrix(1,0,0,1,624.682,432.154)">
                    <path d="M0,4.498C0.159,3.697 0.539,3.067 1.255,2.61C2.959,1.523 4.634,0.392 6.403,-0.775C6.673,1.943 6.262,2.924 4.172,4.825C3.996,4.793 3.821,4.76 3.647,4.735C2.698,4.596 1.88,5.273 0.933,5.174C0.525,5.079 0.215,4.853 0,4.498" style="fill:rgb(145,177,147);fill-rule:nonzero;"/>
                </g>
                <g transform="matrix(1,0,0,1,624.125,437.113)">
                    <path d="M0,5.648L-0.08,2.977C-0.034,2.744 0.012,2.511 0.052,2.276C0.282,1.846 0.581,1.46 0.936,1.11C1.131,0.954 1.334,0.805 1.531,0.648C2.195,0.242 2.907,0 3.72,0.12C3.881,0.306 4.042,0.494 4.203,0.681C3.397,2.77 2.142,4.532 0,5.648" style="fill:rgb(145,177,147);fill-rule:nonzero;"/>
                </g>
                <g transform="matrix(1,0,0,1,623.597,436.153)">
                    <path d="M0,2.905C-0.869,2.99 -1.738,3.075 -2.608,3.16C-1.623,1.466 -0.104,0.483 1.599,-0.254C1.598,-0.255 1.933,0.033 1.933,0.033C2.575,1.154 2.114,2.035 1.415,2.867C0.955,3.142 0.483,3.154 0,2.905" style="fill:rgb(145,177,147);fill-rule:nonzero;"/>
                </g>
                <g transform="matrix(-0.761686,-0.647947,-0.647947,0.761686,625.851,437.093)">
                    <path d="M-1.606,-3.482C-2.775,-1.767 -3.038,-0.322 -2.12,0.772C-2.122,0.773 -1.606,0.607 -1.606,0.607C0.316,-1.286 0.415,-2.661 -1.048,-3.59L-1.606,-3.482Z" style="fill:rgb(145,177,147);fill-rule:nonzero;"/>
                </g>
                <g transform="matrix(1,0,0,1,583.555,393.736)">
                    <path d="M0,49.451C-0.939,49.206 -1.576,48.678 -1.903,47.714C-2.09,47.161 -2.503,46.685 -2.814,46.175C-3.271,45.068 -4.339,43.773 -1.996,43.533C-0.986,43.984 0,44.499 1.039,44.869C2.201,45.282 2.726,44.696 2.415,43.35C2.092,41.958 1.716,40.576 1.323,39.201C0.788,37.337 0.76,35.466 0.974,33.545C3.029,33.352 3.567,35.435 5.099,35.868C5.93,36.102 6.692,35.749 6.731,34.852C6.737,34.693 6.761,34.532 6.747,34.375C6.235,28.679 5.72,22.983 5.204,17.287C5.132,16.501 4.906,15.696 5.003,14.932C5.548,10.683 6.171,6.443 6.767,2.2C7.157,1.71 7.558,1.229 7.93,0.726C8.217,0.339 8.544,-0.032 9.047,0.182C9.258,0.272 9.441,0.654 9.464,0.918C9.536,1.709 9.531,2.508 9.54,3.304C9.566,5.693 9.583,8.082 9.606,10.472C9.625,12.541 9.711,14.576 10.366,16.596C11.663,20.59 11.494,24.764 11.594,28.896C12.031,29.572 12.029,30.27 11.706,30.982C8.533,30.596 8.859,27.787 8.681,25.885C8.227,21.021 7.471,16.153 7.759,11.237C7.217,20.323 8.961,29.193 10.214,38.121C10.785,42.191 9.511,42.98 5.36,41.65C5.125,42.805 5.856,43.763 6.007,44.828C6.244,45.688 6.678,46.472 6.996,47.302C6.769,49.021 5.552,49.419 4.084,49.483C2.841,49.42 2.09,47.415 0.543,48.598C0.437,48.937 0.251,49.216 0,49.451" style="fill:rgb(133,168,139);fill-rule:nonzero;"/>
                </g>
                <g transform="matrix(1,0,0,1,598.907,425.963)">
                    <path d="M0,3.471C-0.092,0.931 0.904,-1.41 1.343,-3.852C1.535,-4.921 1.746,-5.987 1.949,-7.054C2.531,-7.35 3.01,-7.231 3.389,-6.7C5.214,-1.846 3.661,2.736 2.141,7.276C1.597,8.899 0.854,10.821 -1.402,10.501C-3.394,10.219 -4.145,8.499 -4.666,6.758C-5.087,5.348 -5.124,3.929 -4.661,2.527C-2.957,0.187 -2.671,1.532 -2.375,3.362C-1.797,6.934 -0.859,4.821 0,3.471" style="fill:rgb(101,158,133);fill-rule:nonzero;"/>
                </g>
                <g transform="matrix(1,0,0,1,601.785,398.725)">
                    <path d="M0,20.169C-0.31,20.174 -0.62,20.178 -0.93,20.183C-0.904,17.657 -0.879,15.131 -0.854,12.606C-0.034,11.731 -0.04,10.638 -0.028,9.543C-0.001,7.211 0.038,4.879 0.071,2.547C0.084,1.6 0.172,0.68 0.935,-0.014C2.815,1.832 2.096,4.225 2.297,6.424C2.227,8.844 2.414,11.279 1.979,13.684C1.7,14.931 1.275,16.151 1.229,17.45C1.097,18.481 0.876,19.474 0,20.169" style="fill:rgb(123,166,139);fill-rule:nonzero;"/>
                </g>
                <g transform="matrix(1,0,0,1,598.907,426.704)">
                    <path d="M0,2.73C-0.003,3.954 0.276,5.224 -0.498,6.328C-0.657,6.555 -0.981,6.781 -1.237,6.791C-1.47,6.8 -1.795,6.569 -1.941,6.352C-2.556,5.433 -2.883,4.416 -2.87,3.291C-2.86,2.349 -2.941,1.42 -3.82,0.808C-4.649,-0.118 -4.643,-1.059 -3.869,-2.013C-3.832,-2.698 -3.796,-3.384 -3.759,-4.07C-2.475,-2.287 -1.991,-0.25 -1.892,1.902C-1.819,3.475 -0.87,3.001 0,2.73" style="fill:rgb(152,178,142);fill-rule:nonzero;"/>
                </g>
                <g transform="matrix(1,0,0,1,612.493,406.958)">
                    <path d="M0,4.334C2.136,3.019 1.995,0.567 2.859,-1.383C4.128,-2.225 5.123,-3.361 5.981,-4.71C6.96,-3.55 6.354,-2.449 6.583,-1.466C6.573,-1.283 6.564,-1.101 6.557,-0.917C6.522,-0.548 6.434,-0.192 6.313,0.158C6.195,0.509 6.054,0.852 5.911,1.193C5.734,1.729 5.565,2.266 5.392,2.804C5.273,3.174 5.111,3.522 4.926,3.86C4.414,4.682 3.985,5.537 3.808,6.502C3.695,7.087 3.537,7.657 3.328,8.212C2.927,9.319 2.2,10.272 1.834,11.395C1.748,11.962 1.74,12.541 1.595,13.1C1.49,13.466 1.337,13.814 1.146,14.144C0.839,14.621 0.488,15.067 0.16,15.531C-0.255,16.191 -0.615,16.88 -0.992,17.565C-1.481,18.967 -3.12,20.221 -1.487,21.859C-1.157,22.091 -0.92,22.394 -0.761,22.761C-0.757,22.959 -0.757,23.156 -0.753,23.356C-0.875,23.741 -1.06,24.093 -1.298,24.421C-1.424,24.579 -1.558,24.73 -1.685,24.89C-1.954,25.203 -2.246,25.492 -2.551,25.773C-2.707,25.915 -2.869,26.045 -3.028,26.186C-3.37,26.453 -3.745,26.653 -4.149,26.804C-4.582,26.887 -5.009,26.862 -5.433,26.751C-6.792,23.578 -7.918,20.299 -9.693,17.3C-9.932,12.507 -9.59,7.743 -9.229,2.979C-8.396,-1.73 -8.596,-6.404 -9.715,-11.047L-9.715,-22.553C-7.798,-18.854 -6.854,-15.983 -6.875,-12.763C-6.925,-4.657 -6.896,3.449 -6.873,11.555C-6.869,12.98 -6.796,14.411 -6.634,15.824C-6.589,16.213 -6.173,16.701 -5.802,16.874C-5.354,17.083 -4.966,16.69 -4.736,16.253C-4.663,16.112 -4.566,15.981 -4.508,15.835C-3.003,12.002 -1.502,8.168 0,4.334" style="fill:rgb(123,166,139);fill-rule:nonzero;"/>
                </g>
                <g transform="matrix(1,0,0,1,602.778,409.317)">
                    <path d="M0,-13.407C2.224,-9.38 2.234,-5.08 1.533,-0.704C1.491,-0.444 1.143,-0.233 0.938,0C-0.108,-1.09 1.046,-2.719 0.003,-3.81C-0.017,-6.075 -0.037,-8.34 -0.058,-10.606C-0.039,-11.54 -0.019,-12.474 0,-13.407" style="fill:rgb(101,158,133);fill-rule:nonzero;"/>
                </g>
                <g transform="matrix(1,0,0,1,604.629,462.831)">
                    <path d="M0,-14.163C-0.012,-12.839 0.16,-11.63 1.613,-11.04C2.781,-10.566 3.875,-9.817 5.081,-9.544C10.573,-8.3 13.2,-4.509 14.327,0.624C14.824,2.89 13.871,4.313 11.548,4.737C10.16,4.991 8.714,4.936 7.292,4.99C4.933,5.08 2.549,4.759 0.254,5.68C-0.633,6.037 -1.627,5.919 -2.538,5.561C-4.21,4.905 -5.942,4.919 -7.688,5.06C-9.289,4.814 -10.248,3.873 -10.627,2.323C-11.044,0.62 -12.291,0.036 -13.852,0.104C-16.6,0.223 -19.232,-0.493 -21.881,-0.971C-24.236,-1.396 -26.034,-2.669 -25.734,-5.522C-24.017,-7.059 -24.205,-9.22 -23.87,-11.209C-23.602,-11.562 -23.295,-11.878 -22.953,-12.159C-20.587,-14.466 -17.99,-16.403 -14.642,-16.997C-12.499,-17.377 -11.187,-18.976 -9.607,-20.2C-5.528,-19.583 -3.682,-15.414 0,-14.163" style="fill:rgb(166,137,109);fill-rule:nonzero;"/>
                </g>
                <g transform="matrix(0.967468,0.252993,0.252993,-0.967468,580.759,450.936)">
                    <path d="M1.029,-0.344C0.751,-0.472 0.466,-0.577 0.173,-0.662C0.006,2.126 -0.355,4.935 1.029,7.565C1.488,7.785 1.929,7.754 2.354,7.472C4.554,4.421 2.216,2.136 1.029,-0.344" style="fill:rgb(216,188,148);fill-rule:nonzero;"/>
                </g>
                <g transform="matrix(1,0,0,1,584.441,442.743)">
                    <path d="M0,1.168L-0.386,1.125C-0.386,1.125 -0.775,1.134 -0.774,1.135C-0.878,0.915 -0.916,0.683 -0.887,0.443C-0.886,0.445 -0.833,0.103 -0.833,0.103C-0.37,0 -0.016,0.152 0.228,0.559C0.152,0.762 0.076,0.965 0,1.168" style="fill:rgb(193,169,134);fill-rule:nonzero;"/>
                </g>
                <g transform="matrix(1,0,0,1,604.629,437.674)">
                    <path d="M0,10.994C-2.382,11.327 -4.178,10.429 -5.722,8.602C-6.81,7.315 -7.9,5.937 -9.541,5.234C-11.365,5.215 -12.961,4.617 -14.298,3.363C-15.093,3.287 -15.838,3.12 -16.248,2.324C-12.021,-0.333 -8.41,1.833 -5.591,4.493C-2.809,7.119 -0.073,8.224 3.651,7.897C5.812,7.707 8.084,8.127 9.652,10.041C9.294,10.373 8.935,10.705 8.575,11.038C5.716,11.024 2.858,11.009 0,10.994" style="fill:rgb(117,151,127);fill-rule:nonzero;"/>
                </g>
                <g transform="matrix(1,0,0,1,614.281,400.407)">
                    <path d="M0,47.308C-0.781,47.208 -1.639,47.281 -2.328,46.974C-3.99,46.235 -5.712,46.223 -7.442,46.313C-8.986,46.394 -10.605,47.022 -12.039,46.709C-13.61,46.367 -13.842,44.265 -15.063,43.23C-17.529,41.139 -20.147,39.507 -23.533,39.596C-24.322,39.616 -25.112,39.594 -25.901,39.592C-25.711,36.849 -27.692,34.554 -27.738,31.5C-25.666,32.1 -24.871,33.802 -23.51,34.735C-23.163,34.972 -22.615,35.155 -22.238,35.058C-21.556,34.885 -21.186,34.167 -21.281,33.565C-21.867,29.818 -22.532,26.082 -23.206,22.348C-23.375,21.414 -23.875,20.505 -23.882,19.581C-23.928,13.368 -23.887,7.155 -23.85,0.941C-23.848,0.656 -23.633,0.356 -23.466,0.096C-23.41,0.01 -23.19,0.01 -23.045,0.008C-22.9,0.006 -22.68,0 -22.622,0.084C-22.448,0.339 -22.206,0.645 -22.222,0.916C-22.537,6.185 -21.193,11.337 -21.134,16.575C-21.104,19.301 -20.56,21.883 -19.242,24.284C-19.226,25.225 -19.21,26.165 -19.194,27.105C-19.197,29.609 -19.549,32.178 -17.904,34.387C-17.53,34.889 -17.121,35.374 -16.391,35.327C-15.63,35.278 -15.314,34.685 -15.098,34.123C-13.742,30.605 -12.535,27.043 -12.493,23.212C-12.475,21.637 -12.494,20.062 -12.496,18.487C-12.487,17.532 -12.479,16.577 -12.47,15.621C-11.579,14.848 -12.394,13.521 -11.534,12.738C-11.523,10.192 -11.512,7.646 -11.5,5.1C-10.12,6.109 -10.72,7.602 -10.565,8.911L-10.565,25.205C-9.531,27.448 -7.669,29.297 -8.036,32.185C-8.199,33.467 -6.938,33.901 -5.77,32.886L-5.767,32.881C-5.445,32.569 -5.129,32.25 -4.81,31.935L-4.799,31.923C-4.483,31.606 -4.167,31.289 -3.852,30.972L-3.844,30.964C-3.521,30.653 -3.22,30.321 -2.893,30.015L-2.881,30.004C-1.314,26.604 1.503,24.284 4.29,22.007C5.495,21.022 7.347,20.157 6.702,23.289L6.702,23.292C6.117,23.799 6.29,24.683 5.747,25.211L5.746,25.212C5.158,25.705 5.344,26.598 4.772,27.1L4.756,27.123C4.446,27.445 4.135,27.766 3.823,28.086C3.484,28.387 3.197,28.741 2.87,29.054C2.858,29.368 2.845,29.683 2.831,29.998C2.526,30.322 2.217,30.642 1.903,30.957L1.899,30.961C1.576,31.276 1.256,31.593 0.945,31.92L0.942,31.923C0.616,32.234 0.293,32.549 -0.006,32.889L-0.007,32.889C-0.358,33.179 -0.642,33.535 -0.962,33.856C-0.978,34.168 -0.999,34.48 -1.027,34.792C-1.32,35.121 -1.623,35.441 -1.936,35.751L-1.94,35.756C-2.262,36.069 -2.578,36.389 -2.898,36.704L-2.906,36.712C-3.218,37.029 -3.536,37.341 -3.859,37.648C-4.49,37.981 -5.122,38.315 -5.754,38.648C-6.089,38.956 -6.412,39.275 -6.711,39.618C-6.85,41.215 -6.5,42.469 -4.598,42.644C-3.981,42.701 -3.326,42.934 -2.756,42.799C1.204,41.867 5.269,41.201 8.676,38.714C8.976,38.679 9.277,38.652 9.578,38.632C10.49,38.35 10.762,38.707 10.524,39.576L10.522,39.589C10.203,39.901 9.895,40.224 9.598,40.557C9.598,40.557 9.591,40.568 9.591,40.569C7.265,42.575 4.929,44.57 2.618,46.594C1.844,47.271 0.919,47.242 0,47.308" style="fill:rgb(87,152,130);fill-rule:nonzero;"/>
                </g>
                <g transform="matrix(1,0,0,1,621.087,424.757)">
                    <path d="M0,-1.547C-0.114,-2.547 -0.28,-3.869 -1.362,-2.771C-2.992,-1.115 -4.396,0.871 -5.94,2.659C-7.239,4.163 -8.288,6.021 -9.959,7.009C-9.965,6.604 -9.97,6.198 -9.975,5.792C-10.474,5.149 -10.256,4.494 -10.002,3.835C-9.802,3.424 -9.563,3.048 -9.298,2.697C-9.033,2.351 -8.736,2.046 -8.416,1.779C-8.257,1.649 -8.093,1.524 -7.932,1.395C-7.649,1.072 -7.398,0.715 -7.184,0.315C-7.071,0.117 -6.956,-0.077 -6.844,-0.275C-6.053,-1.385 -5.218,-2.434 -4.23,-3.287C-3.17,-3.893 -2.68,-5.827 -1.13,-5.287C0.249,-5.189 1.18,-8.556 2.432,-6.589C3.197,-5.387 1.881,-3.385 0.817,-2.147C0.593,-1.886 0.275,-1.744 0,-1.547" style="fill:rgb(101,158,133);fill-rule:nonzero;"/>
                </g>
                <g transform="matrix(1,0,0,1,619.053,425.619)">
                    <path d="M0,1.888C0.03,1.107 0.206,0.401 0.974,0C0.948,0.783 0.779,1.493 0,1.888" style="fill:rgb(101,158,133);fill-rule:nonzero;"/>
                </g>
                <g transform="matrix(1,0,0,1,620.028,423.699)">
                    <path d="M0,1.919C0.013,1.128 0.18,0.413 0.955,0C0.937,0.789 0.769,1.503 0,1.919" style="fill:rgb(101,158,133);fill-rule:nonzero;"/>
                </g>
                <g transform="matrix(1,0,0,1,624.805,435.428)">
                    <path d="M0,4.555C-0.315,4.24 -0.631,3.926 -0.946,3.611C-0.598,3.008 -0.251,2.404 0.098,1.801C1.028,1.693 1.762,1.21 2.529,0.7C3.583,0 3.744,0.785 3.758,1.625C2.937,2.078 2.292,2.703 1.869,3.545C1.246,3.882 0.623,4.218 0,4.555" style="fill:rgb(128,168,139);fill-rule:nonzero;"/>
                </g>
                <g transform="matrix(1,0,0,1,590.33,451.481)">
                    <path d="M0,-10.444C1.85,-10.492 3.538,-10.128 4.757,-8.573C4.522,-6.394 3.206,-5.259 1.157,-4.786C0.09,-4.54 -0.951,-4.189 -2.015,-3.928C-3.744,-3.505 -5.271,-2.829 -6.244,-1.202C-6.764,-0.334 -7.672,-0.013 -8.663,0.048C-8.071,-1.037 -7.621,-2.237 -6.854,-3.179C-5.749,-4.535 -5.739,-6.006 -5.889,-7.571C-5.89,-7.571 -5.79,-7.673 -5.79,-7.673C-5.032,-8.539 -4.214,-9.246 -2.942,-8.726C-1.869,-9.14 -0.767,-9.506 0,-10.444" style="fill:rgb(193,169,134);fill-rule:nonzero;"/>
                </g>
                <g transform="matrix(1,0,0,1,587.388,440.803)">
                    <path d="M0,1.952C-0.886,2.474 -1.749,3.059 -2.848,3.005C-3.159,2.684 -3.47,2.363 -3.78,2.042C-4.119,1.213 -4.861,0.507 -4.633,-0.491C-4.578,-0.729 -4.139,-1.107 -4.121,-1.094C-2.918,-0.196 -1.205,-0.197 -0.238,1.08C-0.069,1.303 -0.075,1.658 0,1.952" style="fill:rgb(122,164,136);fill-rule:nonzero;"/>
                </g>
                <g transform="matrix(1,0,0,1,602.747,416.028)">
                    <path d="M0,-2.884C-0.02,-1.828 0.171,-0.704 -0.936,0C-0.917,-1.057 -1.108,-2.181 0,-2.884" style="fill:rgb(101,158,133);fill-rule:nonzero;"/>
                </g>
                <g transform="matrix(1,0,0,1,608.511,427.441)">
                    <path d="M0,5.852C-0.078,6.155 -0.135,6.467 -0.24,6.761C-0.499,7.487 -1.129,7.682 -1.749,7.5C-2.133,7.388 -2.469,6.945 -2.712,6.575C-2.868,6.338 -2.861,5.963 -2.85,5.652C-2.777,3.579 -2.85,1.593 -4.537,-0.004C-4.886,-0.335 -4.723,-1.207 -4.796,-1.83C-2.706,-0.021 -1.837,1.782 -1.848,4.117C-1.854,5.306 -1.042,5.726 0,5.852" style="fill:rgb(101,158,133);fill-rule:nonzero;"/>
                </g>
            </g>
        </g>
        <g id="Irgendeine-Pflanze.ai1" serif:id="Irgendeine Pflanze.ai">
        </g>
    </g>
</svg>
