<?xml version="1.0" encoding="UTF-8" standalone="no"?>
<!DOCTYPE svg PUBLIC "-//W3C//DTD SVG 1.1//EN" "http://www.w3.org/Graphics/SVG/1.1/DTD/svg11.dtd">
<svg width="100%" height="100%" viewBox="0 0 4961 3508" version="1.1" xmlns="http://www.w3.org/2000/svg" xmlns:xlink="http://www.w3.org/1999/xlink" xml:space="preserve" xmlns:serif="http://www.serif.com/" style="fill-rule:evenodd;clip-rule:evenodd;stroke-linejoin:round;stroke-miterlimit:2;">
    <g transform="matrix(1.4038,0,0,1.4038,2492.66,1765.85)">
        <g id="Kaktus-vier.ai" serif:id="Kaktus vier.ai" transform="matrix(1,0,0,1,-1753.94,-1240.16)">
            <g id="Ebene-1" serif:id="Ebene 1" transform="matrix(4.16667,0,0,4.16667,0,0)">
                <g transform="matrix(1,0,0,1,431.84,373.389)">
                    <path d="M0,14.604C1.347,15.47 2.693,16.337 4.04,17.203C4.371,17.719 4.329,18.202 3.916,18.654C-3.964,18.955 -11.848,19.236 -19.669,17.877C-21.404,17.576 -23.053,16.844 -24.386,15.703C-28.093,12.532 -31.374,8.841 -35.84,6.612C-36.409,6.328 -36.546,5.602 -36.488,4.932C-35.477,4.109 -34.486,4.26 -33.508,4.992L-33.505,4.998C-33.269,5.205 -33.068,5.509 -32.793,5.604C-26.861,7.659 -26.809,9.572 -26.647,1.828C-26.602,-0.324 -27.296,-2.622 -25.883,-4.632C-23.997,-2.832 -24.382,-0.433 -24.593,1.684C-25.099,6.762 -23.03,9.955 -18.298,11.57C-14.893,13.78 -11.104,13.451 -7.336,13.201C-6.937,13.075 -6.539,12.944 -6.153,12.778C-5.778,12.586 -5.386,12.435 -4.985,12.304C-4.552,12.202 -4.171,12.311 -3.836,12.598C-3.266,13.893 -2.333,14.628 -0.858,14.525C-0.579,14.629 -0.293,14.656 0,14.604" style="fill:rgb(213,192,162);fill-rule:nonzero;"/>
                </g>
                <g transform="matrix(1,0,0,1,425.292,200.942)">
                    <path d="M0,186.016C-0.238,186.218 -0.454,186.559 -0.717,186.6C-3.855,187.088 -7.005,187.016 -10.134,186.567C-11.055,186.435 -11.95,186.003 -12.534,185.168C-12.049,181.444 -13.106,177.872 -13.695,174.27C-15.068,165.874 -14.69,157.42 -14.781,148.978C-14.852,142.343 -15.704,141.508 -22.217,141.385C-38.059,141.085 -45.863,132.557 -46.57,116.544C-47.238,101.402 -45.834,86.313 -46.421,71.2C-46.533,68.332 -46.302,65.4 -48.741,63.225C-48.749,61.346 -47.454,59.982 -46.649,58.493C-45.084,55.6 -41.344,55.713 -39.631,58.572C-38.808,59.945 -38.314,61.477 -38.208,63.107C-37.847,68.679 -37.277,74.227 -37.929,79.841C-38.37,83.638 -38.246,87.499 -38.421,91.329C-38.545,94.039 -38.832,96.744 -38.897,99.454C-39.071,106.658 -38.593,113.846 -37.148,120.893C-35.817,127.384 -32.79,129.886 -26.193,130.222C-17.273,130.676 -18.312,131.463 -18.234,123.063C-18.059,104.051 -17.998,85.038 -17.891,66.026C-17.886,65.068 -17.867,64.108 -17.903,63.15C-17.994,60.731 -18.141,60.487 -20.681,60.316C-22.646,60.183 -24.469,59.828 -26.041,58.582C-24.56,56.984 -22.759,57.882 -21.072,57.962C-17.759,58.118 -17.505,58.036 -14.694,55.409C-17.412,54.581 -20.168,54.889 -22.673,53.789C-32.662,49.401 -35.831,40.758 -36.615,30.978C-37.185,23.865 -36.837,16.678 -36.298,9.536C-36.41,8.457 -35.879,7.624 -35.042,7.13C-32.322,5.522 -28.712,6.455 -27.144,9.144C-26.17,10.814 -25.764,12.633 -25.588,14.585C-25.116,19.828 -25.247,25.076 -25.163,30.324C-25.126,32.703 -25.017,35.099 -24.681,37.45C-24.346,39.802 -22.972,41.499 -20.679,42.396C-18.763,43.145 -17.527,42.479 -17.334,40.485C-17.273,39.853 -17.301,39.213 -17.272,38.577C-16.975,31.902 -16.666,25.228 -16.377,18.553C-16.176,13.924 -15.312,9.396 -14.063,4.96C-13.43,2.713 -12.755,0.341 -10.565,-1.072C-10.096,-0.718 -9.749,-0.271 -9.514,0.267C-8.104,4.413 -8.045,8.704 -8.167,13.017C-8.589,26.807 -6.667,40.533 -7.151,54.333C-7.34,59.71 -8.857,64.989 -8.178,70.402C-8.793,78.832 -10.026,87.207 -10.635,95.648C-11.243,104.064 -11.069,112.454 -10.443,120.858C-9.589,113.332 -10.837,105.659 -8.59,98.251C-7.406,91.968 -7.928,85.573 -7.227,79.237C-6.479,72.477 -5.453,65.646 -6.163,58.771C-6.244,57.987 -6.08,57.178 -5.86,56.408C-5.5,55.149 -5.017,53.78 -3.497,53.798C-1.788,53.818 -1.717,55.437 -1.641,56.621C-1.304,61.875 -0.99,67.201 -1.616,72.388C-3.112,84.798 -1.8,97.236 -2.492,109.626C-3.762,132.396 -3.297,155.176 -3.371,177.954C-3.378,179.985 -3.833,182.123 -2.543,183.982C-1.649,184.601 -0.648,185.091 0,186.016" style="fill:rgb(77,149,128);fill-rule:nonzero;"/>
                </g>
                <g transform="matrix(1,0,0,1,376.551,385.527)">
                    <path d="M0,-121.36C0.918,-121.763 1.718,-121.942 2.562,-121.03C3.656,-119.846 3.716,-118.48 3.713,-117.027C3.696,-107.78 3.693,-98.533 3.686,-89.287C2.429,-84.105 2.595,-78.95 3.617,-73.726C4.037,-71.576 3.771,-69.273 3.679,-67.045C3.353,-59.141 6.637,-52.932 12.452,-47.823C15.283,-45.336 18.795,-45.015 22.239,-44.659C24.921,-44.381 27.659,-44.512 30.366,-44.625C33.154,-44.741 34.358,-43.746 35.233,-40.45C35.472,-39.55 35.353,-38.548 35.356,-37.593C35.367,-34.245 35.419,-30.896 35.346,-27.55C35.162,-19.101 36.038,-10.775 38.028,-2.561C38.466,-0.753 38.266,-0.489 36.207,0.582C35.899,0.521 35.568,0.512 35.285,0.39C28.652,-2.462 28.687,-2.464 28.708,-9.706C28.714,-12.059 29.082,-14.427 28.568,-16.771C28.805,-20.43 29.084,-24.087 29.266,-27.749C29.385,-30.137 29.392,-32.531 29.389,-34.923C29.387,-36.021 28.777,-36.724 27.643,-36.79C26.37,-36.864 25.088,-36.932 23.816,-36.873C19.954,-36.696 16.184,-37.405 12.432,-38.112C10.572,-38.462 8.74,-39.156 7.007,-39.941C2.008,-42.206 -1.009,-46.137 -2.077,-51.494C-2.637,-54.305 -3.05,-57.148 -3.058,-60.037C-3.098,-74.235 -3.179,-88.433 -3.212,-102.631C-3.223,-107.596 -2.571,-112.49 -1.428,-117.324C-1.095,-118.73 -0.749,-120.111 0,-121.36" style="fill:rgb(64,129,128);fill-rule:nonzero;"/>
                </g>
                <g transform="matrix(1,0,0,1,388.995,260.76)">
                    <path d="M0,-50.282C0.614,-50.124 1.545,-49.96 1.414,-49.271C0.295,-43.414 1.205,-37.502 0.825,-31.636C0.417,-25.323 2.407,-19.668 5.448,-14.351C8.438,-9.125 13.195,-6.531 19.172,-6.139C19.808,-6.098 20.454,-6.183 21.088,-6.122C22.153,-6.019 23.34,-6.499 24.236,-5.521C24.769,-4.94 24.089,-3.815 22.538,-2.43C20.017,-0.179 17.059,0 13.994,-0.672C12.749,-0.945 11.567,-1.447 10.257,-1.236C5.845,-2.169 2.918,-5.158 0.263,-8.497C-0.407,-9.338 -0.685,-10.486 -1.73,-11.037C-4.386,-18.412 -4.007,-26.02 -3.348,-33.62C-3.007,-37.562 -2.877,-41.54 -1.815,-45.404C-1.35,-47.094 -0.97,-48.79 0,-50.282" style="fill:rgb(69,132,128);fill-rule:nonzero;"/>
                </g>
                <g transform="matrix(1,0,0,1,425.292,200.791)">
                    <path d="M0,186.167C-0.937,186.152 -1.874,186.137 -2.811,186.121C-4.523,181.867 -4.082,177.352 -4.196,172.953C-4.892,146.275 -3.162,119.624 -3.183,92.946C-3.192,82.112 -1.952,71.26 -2.392,60.418C-3.133,42.138 -1.853,23.767 -4.8,5.576C-5.125,3.569 -5.909,0.968 -2.798,0L-2.734,0.083C-2.158,1.066 -1.683,2.119 -0.831,2.917C1.399,5.649 1.571,9.075 1.835,12.28C2.235,17.134 2.004,22.04 2.041,26.924C2.938,38.855 2.367,50.805 2.362,62.744C2.36,68.131 4.229,73.287 3.561,78.773C3.138,82.252 6.055,82.452 8.569,81.649C13.902,79.945 17.183,75.87 20.001,71.293C23.843,65.053 25.002,57.883 27.178,51.065C27.793,49.137 28.163,47.079 31.15,45.654C31.153,51.35 31.605,56.439 30.825,61.562C30.987,65.236 30.93,68.887 29.856,72.455C29.534,73.528 29.373,74.639 29.627,75.765C29.295,76.645 28.906,77.509 28.642,78.409C26.781,84.738 22.585,88.677 16.253,90.268C12.885,91.113 9.439,91.649 6.025,92.306C5.255,92.455 4.442,92.453 3.901,93.157C3.696,93.391 3.316,93.621 3.312,93.858C3.242,97.677 3.186,101.497 3.21,105.317C3.217,106.416 4.243,106.914 5.274,106.434C7.025,105.619 8.661,104.597 9.877,103.088C12.471,99.87 16.854,101.352 17.904,105.384C19.219,110.432 18.115,115.631 13.578,119.118C11.337,120.84 8.852,122.323 5.981,123.039C3.062,123.767 3.052,123.889 3.03,126.971C2.965,135.738 2.937,144.505 2.892,153.271C2.848,161.878 2.783,170.485 2.766,179.093C2.762,181.18 2.696,183.237 1.873,185.195L1.442,185.184L1.013,185.228C0.699,185.537 0.379,185.84 0.053,186.136L0,186.167Z" style="fill:rgb(64,129,128);fill-rule:nonzero;"/>
                </g>
                <g transform="matrix(1,0,0,1,456.117,247.229)">
                    <path d="M0,15.124L0,0.793C-1.338,0.71 -1.53,1.601 -1.712,2.275C-2.83,6.411 -3.706,10.62 -4.984,14.704C-7.24,21.915 -10.324,28.68 -16.314,33.719C-19.408,36.321 -22.841,37.607 -26.898,37.074C-27.974,36.933 -28.684,36.425 -28.787,35.305C-28.859,34.512 -28.714,33.684 -28.881,32.919C-29.603,29.597 -27.782,26.466 -28.456,23.031C-29.12,19.642 -28.788,16.053 -28.834,12.551C-28.878,9.201 -28.845,5.85 -28.848,2.499C-28.852,-1.011 -28.859,-4.521 -28.864,-8.031C-28.868,-11.382 -28.875,-14.732 -28.871,-18.083C-28.871,-18.56 -28.815,-19.038 -28.784,-19.515C-27.732,-17.931 -28.07,-16.113 -28.043,-14.405C-27.876,-3.584 -27.805,7.239 -27.682,18.061C-27.666,19.483 -27.604,20.913 -27.429,22.323C-27.337,23.061 -26.644,23.33 -25.975,23.118C-23.751,22.415 -22.086,20.903 -20.842,19.022C-18.269,15.129 -16.422,10.938 -16.289,6.166C-16.227,3.939 -16.096,1.707 -16.173,-0.516C-16.33,-4.989 -15.777,-9.41 -15.373,-13.844C-15.125,-16.568 -14.134,-19.015 -12.557,-21.236C-9.972,-15.309 -8.727,-9.217 -9.762,-2.707C-10.294,0.64 -11.08,4.136 -8.931,7.392C-6.798,6.385 -6.809,4.479 -6.467,2.834C-5.129,-3.613 -4.787,-10.105 -5.742,-16.648C-6.037,-18.669 -6.583,-20.782 -4.787,-22.483C-2.678,-21.905 -2.484,-19.671 -1.219,-18.363C0.632,-8.501 0.857,1.462 0.639,11.452C0.611,12.701 0.835,14.009 0,15.124" style="fill:rgb(78,150,128);fill-rule:nonzero;"/>
                </g>
                <g transform="matrix(1,0,0,1,422.494,383.794)">
                    <path d="M0,-183.003C-1.594,-181.37 -0.955,-179.45 -0.679,-177.588C0.019,-172.888 0.915,-168.214 0.945,-163.435C0.966,-160.1 0.61,-156.727 1.816,-153.494C1.604,-147.942 2.591,-142.353 1.151,-136.831C0.797,-135.475 0.954,-133.975 0.951,-132.541C0.933,-121.207 0.94,-109.872 0.923,-98.537C0.92,-96.314 0.99,-94.114 0.253,-91.914C-0.185,-90.606 -0.002,-89.072 -0.005,-87.64C-0.027,-75.826 -0.022,-64.013 -0.039,-52.199C-0.043,-50.134 0.042,-48.086 -0.661,-46.048C-1.061,-44.887 -0.961,-43.529 -0.964,-42.26C-0.983,-31.563 -0.977,-20.867 -0.973,-10.171C-0.972,-8.42 -0.905,-6.711 -0.39,-4.975C0.39,-2.347 -0.171,0.419 -0.013,3.119C-0.855,3.037 -1.662,2.75 -1.799,1.849C-1.966,0.754 -1.939,-0.376 -1.939,-1.491C-1.946,-20.157 -1.945,-38.823 -1.941,-57.489C-1.941,-58.446 -2.136,-59.478 -1.85,-60.346C-0.516,-64.401 -1.034,-68.563 -1.005,-72.682C-0.94,-82.094 -0.996,-91.507 -0.977,-100.92C-0.972,-103.298 -1.237,-105.704 -0.233,-108C0.01,-108.553 -0.041,-109.256 -0.04,-109.891C-0.032,-115.634 -0.031,-121.378 -0.068,-127.121C-0.071,-127.518 -0.332,-127.968 -0.597,-128.293C-0.848,-128.602 -1.742,-127.775 -1.802,-127.089C-1.885,-126.139 -1.932,-125.184 -1.938,-124.23C-1.955,-121.518 -1.932,-118.806 -1.948,-116.094C-1.959,-114.188 -1.787,-112.269 -2.58,-110.433C-2.824,-109.869 -2.896,-109.182 -2.869,-108.56C-2.559,-101.549 -4.522,-94.651 -3.886,-87.621C-3.775,-86.388 -3.615,-85.03 -4.829,-84.1C-7.493,-88.532 -6.05,-93.402 -6.14,-98.057C-6.262,-104.4 -4.957,-110.665 -4.482,-116.598C-5.381,-115.437 -3.722,-112.504 -6.735,-111.902C-6.597,-116.014 -7.195,-120.163 -5.875,-124.217C-5.546,-125.229 -5.785,-126.431 -5.784,-127.545C-5.78,-133.597 -5.769,-139.649 -5.788,-145.701C-5.795,-148.236 -5.604,-150.769 -6.535,-153.252C-6.906,-154.244 -6.73,-155.455 -6.734,-156.567C-6.75,-161.186 -6.74,-165.805 -6.739,-170.423C-4.677,-170.337 -4.65,-168.638 -4.547,-167.32C-3.593,-155.202 -2.833,-143.074 -3.367,-134.596C-3.324,-148.678 -3.107,-166.44 -6.631,-183.991C-6.679,-184.267 -6.727,-184.543 -6.774,-184.819C-3.788,-186.122 -2.405,-185.751 0,-183.003" style="fill:rgb(77,146,128);fill-rule:nonzero;"/>
                </g>
                <g transform="matrix(1,0,0,1,451.33,255.847)">
                    <path d="M0,-31.101C-0.075,-28.884 0.23,-26.723 0.52,-24.517C1.158,-19.665 1.271,-14.731 0.394,-9.851C-0.08,-7.215 -0.505,-4.568 -1.081,-1.954C-1.526,0.066 -2.842,1.409 -4,1.319C-5.376,1.213 -6.774,-0.539 -6.744,-2.611C-6.696,-5.917 -7.071,-9.21 -6.15,-12.535C-5.441,-15.093 -5.583,-17.854 -6.331,-20.528C-7.182,-23.569 -8.071,-26.627 -7.77,-29.855C-6.952,-31.427 -5.475,-31.957 -3.881,-32.087C-2.519,-32.199 -1.014,-32.51 0,-31.101" style="fill:rgb(64,129,128);fill-rule:nonzero;"/>
                </g>
                <g transform="matrix(1,0,0,1,424.461,200.873)">
                    <path d="M0,2.835C-1.392,2.398 -2.008,1.441 -1.903,0C-0.621,0.511 -0.052,1.5 0,2.835" style="fill:rgb(77,146,128);fill-rule:nonzero;"/>
                </g>
                <g transform="matrix(0.914492,0.404605,0.404605,-0.914492,414.543,200.566)">
                    <path d="M0.433,-0.186C0.251,0.113 0.069,0.413 -0.113,0.711C-0.24,1.257 -0.1,1.682 0.433,1.932L0.7,1.773C1.495,1 1.725,0.303 0.433,-0.186" style="fill:rgb(77,146,128);fill-rule:nonzero;"/>
                </g>
                <g transform="matrix(1,0,0,1,381.066,398.478)">
                    <path d="M0,-20.1C0.722,-20.38 1.476,-20.598 2.162,-20.951C4.498,-22.152 6.975,-22.366 9.465,-21.799C11.428,-21.352 13.506,-21.228 15.291,-20.133C16.619,-18.67 18.414,-17.958 20.201,-17.392C21.835,-16.875 22.962,-15.952 23.835,-14.548C26.785,-9.8 31.374,-8.062 36.663,-7.696C38.085,-7.598 39.52,-7.662 40.949,-7.679C45.854,-7.736 50.757,-7.78 55.598,-6.79C57.54,-6.925 58.885,-5.703 60.332,-4.711C60.987,-4.124 61.642,-3.536 62.298,-2.949C63.182,-2.017 65.019,-1.455 64.1,0.283C63.051,2.266 61.076,2.041 59.206,1.798C51.129,1.154 43.029,0.874 34.94,0.417C31.442,0.219 27.964,0.023 24.477,-0.39C21.085,-0.792 18.585,-2.107 16.503,-4.908C13.49,-8.963 11.547,-8.996 8.306,-5.403C6.186,-3.052 3.785,-3.5 1.295,-4.281C-2.156,-5.364 -4.532,-8.101 -7.402,-10.079C-8.861,-11.48 -8.042,-12.632 -6.944,-13.685C-4.669,-15.865 -2.724,-18.405 0,-20.1" style="fill:rgb(197,167,129);fill-rule:nonzero;"/>
                </g>
                <g transform="matrix(1,0,0,1,440.756,400.826)">
                    <path d="M0,-1.401C0.915,-1.426 1.848,-1.347 2.741,-1.499C4.221,-1.751 4.443,-2.561 3.565,-4.1C3.339,-4.495 3.125,-4.897 2.906,-5.296C4.087,-4.843 5.291,-4.44 6.44,-3.918C7.102,-3.617 8.111,-3.482 7.982,-2.427C7.875,-1.555 7.086,-1.097 6.382,-0.79C4.785,-0.091 3.172,0.651 1.489,1.055C-0.976,1.647 -3.495,2.071 -6.015,2.368C-12.009,3.076 -18.048,3.462 -24.011,4.359C-31.621,5.503 -39.252,5.094 -46.879,5.211C-49.744,5.255 -52.61,5.229 -55.475,5.234C-56.781,4.111 -58.47,4.413 -59.977,4.078C-64.257,3.13 -68.568,2.318 -72.866,1.452L-72.863,1.462C-73.502,0.98 -74.248,0.735 -74.99,0.469C-76.767,-0.168 -78.019,-1.367 -78.044,-3.3C-78.071,-5.372 -76.103,-5.454 -74.756,-6.109L-74.774,-6.094C-73.741,-6.904 -72.714,-6.88 -71.692,-6.074C-70.463,-3.835 -68.565,-2.633 -66.067,-2.078C-61.076,-0.971 -56.057,-0.005 -50.945,0.051C-34.383,0.234 -17.815,0.407 -1.336,-1.749C-0.82,-1.817 -0.416,-1.63 0,-1.401" style="fill:rgb(219,188,121);fill-rule:nonzero;"/>
                </g>
                <g transform="matrix(1,0,0,1,438.696,389.593)">
                    <path d="M0,3.174C-1.811,3.011 -3.174,1.829 -4.734,1.096C-4.708,0.73 -4.681,0.366 -4.654,0C-2.826,0.652 -0.827,1.054 0,3.174" style="fill:rgb(235,209,174);fill-rule:nonzero;"/>
                </g>
                <g transform="matrix(1,0,0,1,425.345,386.019)">
                    <path d="M0,0.908C0.32,0.605 0.64,0.303 0.96,0C0.824,0.497 0.543,0.841 0,0.908" style="fill:rgb(77,149,128);fill-rule:nonzero;"/>
                </g>
                <g transform="matrix(1,0,0,1,415.759,317.431)">
                    <path d="M0,-45.539C1.644,-48.122 1.849,-51.105 2.052,-54.254C3.217,-53.552 2.845,-52.732 2.853,-52.085C2.896,-48.735 2.869,-45.384 2.864,-42.033C2.862,-41.394 2.962,-40.729 2.821,-40.122C1.092,-32.716 2.245,-25.197 1.906,-17.737C1.904,-17.578 1.929,-17.413 1.898,-17.26C0.416,-10.019 1.156,-2.684 0.91,4.61C0.863,5.991 1.98,8.304 -0.323,8.542C-1.993,8.715 -1.819,6.411 -2.417,5.186C-2.999,3.994 -2.876,2.696 -2.878,1.426C-2.884,-4.949 -2.803,-11.325 -2.914,-17.698C-2.964,-20.594 -1.668,-23.259 -1.879,-26.189C-2.07,-28.864 -1.544,-31.545 -1.276,-34.216C-0.896,-37.994 0.162,-41.707 0,-45.539" style="fill:rgb(64,131,127);fill-rule:nonzero;"/>
                </g>
                <g transform="matrix(1,0,0,1,414.863,252.763)">
                    <path d="M0,-51.851C0.667,-52.216 0.856,-52.875 1.036,-53.537C3.375,-52.294 3.452,-49.893 3.702,-47.778C4.412,-41.778 5.064,-35.761 4.747,-29.694C4.705,-28.901 4.619,-28.035 4.872,-27.315C6.19,-23.577 5.506,-19.72 5.674,-15.916C5.688,-15.598 5.734,-15.259 5.652,-14.961C4.231,-9.794 4.879,-4.505 4.692,0.735C4.681,1.029 4.509,1.318 4.387,1.686C3.431,1.299 3.805,0.457 3.795,-0.153C3.745,-3.028 3.773,-5.903 3.766,-8.779C3.762,-10.532 3.784,-12.262 3.157,-13.974C2.486,-15.806 2.885,-17.773 2.813,-19.68C2.694,-22.852 2.904,-25.998 2.077,-29.178C1.49,-31.431 1.882,-33.939 1.845,-36.333C1.827,-37.448 1.928,-38.595 0.892,-39.392C0.807,-42.787 1.246,-46.217 0.038,-49.536C-0.211,-50.221 0.001,-51.075 0,-51.851" style="fill:rgb(68,134,127);fill-rule:nonzero;"/>
                </g>
                <g transform="matrix(1,0,0,1,439.024,390.963)">
                    <path d="M0,8.462C-4.337,9.409 -8.726,9.95 -13.132,10.513C-25.84,12.138 -38.57,11.201 -51.287,11.296C-57.816,11.345 -64.184,9.813 -70.489,8.182C-70.943,8.065 -71.359,7.792 -71.781,7.57C-72.641,7.115 -72.742,6.428 -72.417,5.571C-72.194,4.981 -72.052,4.361 -71.873,3.754L-71.879,3.747C-71.565,3.453 -71.215,3.21 -70.835,3.009C-69.72,0.916 -68.183,-0.928 -67.232,-3.116C-67.232,-3.116 -67.254,-3.133 -67.254,-3.134C-66.17,-3.45 -65.174,-3.676 -64.267,-2.591C-62.619,-0.621 -60.651,0.982 -58.205,1.89C-57.323,2.218 -56.415,2.56 -55.49,2.678C-52.98,2.998 -52.43,2.614 -51.778,-0.178C-51.463,-1.524 -50.739,-1.979 -49.481,-2.077C-45.82,-2.364 -42.908,-1.398 -41.403,2.317C-40.475,4.605 -38.693,5.332 -36.211,5.723C-30.528,6.618 -24.782,6.014 -19.165,6.72C-13.461,7.437 -7.792,7.418 -2.098,7.549C-1.271,7.567 -0.541,7.795 0,8.462" style="fill:rgb(167,137,108);fill-rule:nonzero;"/>
                </g>
                <g transform="matrix(-0.835379,-0.549674,-0.549674,0.835379,367.935,391.309)">
                    <path d="M-1.875,-7.353C-3.271,-4.859 -2.857,-2.23 -2.449,0.399C-2.148,0.334 -1.957,0.188 -1.875,-0.038C-1.791,-0.267 -1.777,-0.4 -1.833,-0.437C-1.355,-2.745 -1.043,-5.052 -1.875,-7.353" style="fill:rgb(197,167,129);fill-rule:nonzero;"/>
                </g>
            </g>
        </g>
        <g id="Kaktus-vier.ai1" serif:id="Kaktus vier.ai">
        </g>
    </g>
</svg>
