<?xml version="1.0" encoding="UTF-8" standalone="no"?>
<!DOCTYPE svg PUBLIC "-//W3C//DTD SVG 1.1//EN" "http://www.w3.org/Graphics/SVG/1.1/DTD/svg11.dtd">
<svg width="100%" height="100%" viewBox="0 0 4961 3508" version="1.1" xmlns="http://www.w3.org/2000/svg" xmlns:xlink="http://www.w3.org/1999/xlink" xml:space="preserve" xmlns:serif="http://www.serif.com/" style="fill-rule:evenodd;clip-rule:evenodd;stroke-linejoin:round;stroke-miterlimit:2;">
    <g transform="matrix(1.41017,0,0,1.41017,2471.68,1748.14)">
        <g id="Kleiner-Vogel.ai" serif:id="Kleiner Vogel.ai" transform="matrix(1,0,0,1,-1753.94,-1240.16)">
            <g transform="matrix(4.16667,0,0,4.16667,1613.96,1040.85)">
                <g id="Ebene-1" serif:id="Ebene 1">
                    <path d="M0,-5.626C-0.15,-6.96 0.525,-7.459 1.274,-7.703C6.984,-9.568 12.542,-10.109 17.392,-5.538C18.902,-4.114 20.398,-2.674 21.876,-1.216C23.589,0.475 23.68,0.614 25.737,-1.037C29.865,-4.35 34.599,-4.294 39.413,-3.685C40.617,-3.533 41.752,-2.736 42.885,-2.169C43.289,-1.967 43.604,-1.528 43.352,-1.032C43.228,-0.787 42.922,-0.589 42.653,-0.476C42.368,-0.356 42.032,-0.33 41.716,-0.321C40.918,-0.297 40.109,-0.221 39.322,-0.313C34.163,-0.917 29.576,0.727 25.17,3.17C22.883,4.437 22.25,4.483 20.595,2.7C18.505,0.45 16.073,-1.32 13.597,-3.074C11.191,-4.78 8.663,-5.907 5.597,-5.637C3.728,-5.473 1.833,-5.619 0,-5.626" style="fill:rgb(84,78,77);fill-rule:nonzero;"/>
                </g>
            </g>
        </g>
        <g id="Kleiner-Vogel.ai1" serif:id="Kleiner Vogel.ai">
        </g>
    </g>
</svg>
