<?xml version="1.0" encoding="UTF-8" standalone="no"?>
<!DOCTYPE svg PUBLIC "-//W3C//DTD SVG 1.1//EN" "http://www.w3.org/Graphics/SVG/1.1/DTD/svg11.dtd">
<svg width="100%" height="100%" viewBox="0 0 4961 3508" version="1.1" xmlns="http://www.w3.org/2000/svg" xmlns:xlink="http://www.w3.org/1999/xlink" xml:space="preserve" xmlns:serif="http://www.serif.com/" style="fill-rule:evenodd;clip-rule:evenodd;stroke-linejoin:round;stroke-miterlimit:2;">
    <g transform="matrix(1,0,0,1,2484.61,1761.3)">
        <g id="Mini-Stein.ai" serif:id="Mini Stein.ai" transform="matrix(1,0,0,1,-2480.31,-1753.94)">
            <g id="Ebene-1" serif:id="Ebene 1" transform="matrix(4.16667,0,0,4.16667,0,0)">
                <g transform="matrix(1,0,0,1,618.596,412.062)">
                    <path d="M0,14.402C-1.19,14.351 -2.379,14.299 -3.569,14.248C-9.468,11.513 -9.72,10.589 -5.793,5.309C-4.841,4.029 -4.247,2.537 -3.239,1.314C-2.363,0.251 -1.58,-1.219 0.194,0.005C0.324,0.465 0.419,0.944 0.307,1.414C-1.087,7.284 -1.09,7.263 4.848,7.319C9.954,7.367 15.062,7.145 20.171,7.452C23.12,8.453 26.043,9.555 29.238,9.481C30.078,9.731 30.806,10.16 31.415,10.795C33.069,12.768 34.383,15.083 30.344,15.179C20.654,15.411 10.951,15.621 1.259,15.052C0.776,15.024 0.404,14.653 0,14.402" style="fill:rgb(221,186,112);fill-rule:nonzero;"/>
                </g>
                <g transform="matrix(1,0,0,1,616.683,414.839)">
                    <path d="M0,-2.016C0.018,-3.089 0.622,-3.743 1.369,-4.458C4.639,-7.59 8.503,-8.862 12.81,-7.87C14.717,-7.431 16.418,-6.037 18.182,-5.02C18.388,-4.901 18.395,-4.424 18.494,-4.114C20.675,-0.756 22.826,2.607 20.512,6.827C14.049,6.83 7.585,6.846 1.122,6.826C0,6.822 -1.13,6.723 -2.24,6.558C-3.013,6.444 -3.495,5.41 -3.212,4.628C-2.989,4.011 -2.723,3.407 -2.433,2.82C-1.634,1.202 -0.813,-0.405 0,-2.016" style="fill:rgb(199,169,129);fill-rule:nonzero;"/>
                </g>
                <g transform="matrix(1,0,0,1,637.392,411.79)">
                    <path d="M0,8.9C0.297,4.833 -1.354,1.233 -3.022,-2.364C-2.492,-2.25 -1.659,-2.296 -1.479,-1.998C-0.076,0.329 1.83,2.381 1.988,5.334C2.121,7.809 2.785,8.203 5.43,8.451C7.282,8.625 9.152,8.547 10.268,10.28C6.607,11.264 3.316,10.005 0,8.9" style="fill:rgb(236,203,139);fill-rule:nonzero;"/>
                </g>
            </g>
        </g>
        <g id="Mini-Stein.ai1" serif:id="Mini Stein.ai">
        </g>
    </g>
</svg>
