<?xml version="1.0" encoding="UTF-8" standalone="no"?>
<!DOCTYPE svg PUBLIC "-//W3C//DTD SVG 1.1//EN" "http://www.w3.org/Graphics/SVG/1.1/DTD/svg11.dtd">
<svg width="100%" height="100%" viewBox="0 0 4961 3508" version="1.1" xmlns="http://www.w3.org/2000/svg" xmlns:xlink="http://www.w3.org/1999/xlink" xml:space="preserve" xmlns:serif="http://www.serif.com/" style="fill-rule:evenodd;clip-rule:evenodd;stroke-linejoin:round;stroke-miterlimit:2;">
    <g transform="matrix(1,0,0,1,2484.61,1761.3)">
        <g id="Niedriger-Stein.ai" serif:id="Niedriger Stein.ai" transform="matrix(1,0,0,1,-2480.31,-1753.94)">
            <g id="Ebene-1" serif:id="Ebene 1" transform="matrix(4.16667,0,0,4.16667,0,0)">
                <g transform="matrix(1,0,0,1,526.677,457.077)">
                    <path d="M0,-2.529C0.426,-2.736 0.835,-3.076 1.28,-3.132C8.302,-4.014 15.04,-6.401 22.208,-6.692C26.558,-6.869 31.026,-7.307 35.103,-9.318C36.669,-10.091 38.387,-10.449 40.162,-10.395C41.978,-11.059 43.898,-11.498 45.78,-11.219C60.492,-9.04 75.656,-10.272 89.878,-4.229C100.782,0.404 112.614,-0.053 124.267,-0.176C127.055,-0.205 130.048,-0.879 132.521,1.215C131.141,4.683 127.824,3.994 125.187,4.422C118.564,5.494 111.841,5.903 105.161,6.291C88.751,7.245 72.342,8.969 55.89,8.37C38.667,7.743 21.415,7.194 4.321,4.638C2.739,4.401 1.132,4.247 -0.354,3.635C-2.094,2.918 -4.352,2.391 -4.142,-0.03C-3.94,-2.353 -1.497,-1.854 0,-2.529" style="fill:rgb(197,167,129);fill-rule:nonzero;"/>
                </g>
                <g transform="matrix(1,0,0,1,659.054,443.279)">
                    <path d="M0,15.06C-6.069,15.043 -12.149,14.8 -18.204,15.081C-23.196,15.312 -28.046,14.343 -32.93,13.849C-36.665,13.471 -40.28,11.867 -43.939,10.776C-47.904,9.595 -51.727,7.982 -55.801,7.109C-60.16,6.176 -64.5,5.257 -68.993,5.426C-69.95,5.462 -70.91,5.432 -71.868,5.431C-75.688,5.428 -79.547,5.693 -83.24,4.436C-86.174,3.437 -89.2,3.541 -92.215,3.403C-89.932,1.335 -86.944,1.223 -84.175,0.753C-78.063,-0.284 -71.863,-0.715 -65.714,-1.459C-60.442,-2.097 -55.21,-2.074 -49.952,-2.145C-47.723,-2.175 -45.494,-2.228 -43.295,-1.557C-42.255,-1.24 -41.073,-1.258 -39.964,-1.312C-32.864,-1.657 -26.026,-0.203 -19.236,1.613C-16.069,2.726 -12.722,3.255 -9.618,4.572C-4.683,6.863 0.237,9.185 5.193,11.429C7.393,12.425 9.227,13.795 10.53,15.841C6.893,17.288 3.401,16.786 0,15.06" style="fill:rgb(218,193,162);fill-rule:nonzero;"/>
                </g>
                <g transform="matrix(1,0,0,1,659.054,464.176)">
                    <path d="M0,-5.837C3.532,-5.866 7.079,-6.094 10.53,-5.055C11.443,-4.328 11.66,-3.537 10.657,-2.732C10.294,-2.44 9.849,-2.194 9.401,-2.072C4.486,-0.729 -0.399,0.644 -5.56,0.917C-12.074,1.261 -18.565,2.028 -25.075,2.477C-28.732,2.729 -32.408,2.715 -36.076,2.812C-53.296,3.266 -70.516,3.792 -87.744,3.465C-98.745,3.256 -109.747,3.032 -120.74,2.586C-125.98,2.374 -131.198,1.611 -136.428,1.131C-140.548,0.752 -144.724,0.935 -148.767,-0.204C-150.913,-0.808 -153.092,-1.295 -155.249,-1.864C-155.861,-2.026 -156.497,-2.21 -157.027,-2.537C-157.549,-2.858 -158.061,-3.306 -157.92,-4.078C-157.794,-4.767 -157.367,-5.303 -156.759,-5.468C-154.918,-5.966 -153.065,-6.504 -151.181,-6.736C-149.425,-6.952 -147.722,-7.243 -146.07,-7.873C-145.476,-8.099 -144.857,-8.324 -144.232,-8.394C-140.284,-8.83 -136.33,-9.222 -132.378,-9.629C-132.619,-9.425 -132.833,-9.169 -133.107,-9.027C-134.165,-8.481 -135.983,-8.571 -135.744,-6.841C-135.544,-5.395 -133.922,-5.27 -132.741,-4.891C-131.382,-4.455 -129.991,-4.173 -128.579,-3.905C-124.046,-3.044 -119.384,-3.36 -114.885,-2.225C-113.674,-1.92 -112.344,-2.073 -111.068,-2.04C-108.524,-1.972 -105.994,-2.1 -103.479,-1.322C-102.155,-0.913 -100.628,-1.175 -99.194,-1.108C-93.955,-0.863 -88.667,-1.652 -83.477,-0.242C-82.433,0.042 -81.252,-0.167 -80.134,-0.166C-74.543,-0.163 -68.952,-0.155 -63.362,-0.171C-61.136,-0.177 -58.918,-0.048 -56.731,-0.829C-55.723,-1.19 -54.522,-1.05 -53.407,-1.061C-49.893,-1.095 -46.379,-1.074 -42.865,-1.116C-41.593,-1.131 -40.249,-1.032 -39.067,-1.399C-37.183,-1.985 -35.299,-1.981 -33.386,-2.02C-30.049,-2.089 -26.703,-1.814 -23.415,-2.84C-22.242,-3.206 -20.878,-2.957 -19.601,-2.991C-17.219,-3.055 -14.852,-2.929 -12.497,-3.708C-11.184,-4.142 -9.651,-3.918 -8.217,-3.971C-5.36,-4.078 -2.626,-4.718 0,-5.837" style="fill:rgb(237,189,104);fill-rule:nonzero;"/>
                </g>
            </g>
        </g>
        <g id="Niedriger-Stein.ai1" serif:id="Niedriger Stein.ai">
        </g>
    </g>
</svg>
