<svg id="Ebene_1" data-name="Ebene 1" xmlns="http://www.w3.org/2000/svg" xmlns:xlink="http://www.w3.org/1999/xlink" viewBox="0 0 788.4 737.04"><defs><style>.cls-1{fill:#009fe3;filter:url(#filter);}.cls-2{fill:#047ca6;filter:url(#filter-2);}</style><filter id="filter" x="0" y="0" width="788.4" height="737.04" filterUnits="userSpaceOnUse"><feOffset dx="7" dy="7" input="SourceAlpha"/><feGaussianBlur stdDeviation="5" result="blur"/><feFlood/><feComposite operator="in" in2="blur"/><feComposite in="SourceGraphic"/></filter><filter id="filter-2" x="77.28" y="110.64" width="606.96" height="541.92" filterUnits="userSpaceOnUse"><feOffset dx="7" dy="7" input="SourceAlpha"/><feGaussianBlur stdDeviation="5" result="blur-2"/><feFlood/><feComposite operator="in" in2="blur-2"/><feComposite in="SourceGraphic"/></filter></defs><path class="cls-1" d="M8.53,338.47c-.67-8.4-.95-17.51,3.35-24.52,4.51-7.35,12.87-10.46,19.23-15.95,19.14-16.51,16-48.59,10.89-74.63s-8.54-58,10.35-74.84C66.44,136,86.69,138,104.69,135c28.65-4.76,53.95-23.53,74.22-46.13s31.57-46.18,48.16-55.23c6.61-3.6,14-6.12,21.33-5.17,4.93.64,41.14,9.88,44.85,13.48,6.9,6.7,41.8,19.74,83,14.2C428.9,49,475,2.84,527.82,8.62c45.66,5,79.67,47.11,121.37,68,21.9,11,46.26,16.19,66.61,30.26s36.18,41.71,27.52,66.24c-4.72,13.35-15.62,22.92-22,35.39-12.62,24.5-5.92,55.58,5.74,80.63s28,47.79,35.37,74.72c9.18,33.66,1.09,71.21-18.06,98.95-9.72,14.08-5,19.06-8.88,36.12-3.56,15.51-32.16,22.1-26.07,41.36,8.09,25.64-5.28,41-4.76,68.12.1,5.72,0,11.58-1.84,16.92-3,8.56-10,14.61-17.26,19.18-43.61,27.46-98.67,14.89-147.8,26.91-27.06,6.62-52,20.68-78.1,31.06s-54.84,17-81.41,8.35c-23.18-7.6-42.18-26.1-65-34.92-27.75-10.74-58.29-6.24-87.53-10C124.5,653,57.36,534.64,27.72,438.46A465.66,465.66,0,0,1,8.53,338.47Z"/><path class="cls-2" d="M105.54,238.86c4.29-15.91,11.94-32.19,26.27-40.33,18.68-10.6,43.15-4.43,62.44-13.87,24.06-11.78,32.21-43.5,55.08-57.44,16.17-9.86,36.43-8.93,55.31-7.68l175.18,11.54c16,1.06,32.65,2.28,46.75,10,11.45,6.25,20.29,16.28,28.87,26.11l58.42,66.87c6.94,7.95,14,16.08,18,25.83,3.1,7.47,4.3,15.57,6.28,23.42,2.91,11.5,7.53,22.48,11.32,33.72a243.66,243.66,0,0,1,9.54,116.39c-5.4,33.12-20.74,68.31-51.67,81.34-11.71,4.93-24.63,6.2-36.72,10.12a87.72,87.72,0,0,0-40.88,28.06c-8.47,10.45-14.43,22.74-22.69,33.37-21.87,28.1-58.27,41.94-93.82,43.91s-70.8-6.51-105.15-15.92-68.78-19.86-104.32-22c-5.84-.34-12-.53-17.05-3.42-3.57-2-6.32-5.2-9-8.32Q156.87,556.16,136,531.73c-7.24-8.46-14.7-17.33-17.4-28.14-2.67-10.66-.36-21.87,2-32.62l9.59-44.62c4.93-22.94,9.44-48.57-3-68.49-7.36-11.82-19.59-19.6-29.17-29.7-10.85-11.45-16.82-26.42-8.84-40.71C98,271.61,100.82,256.38,105.54,238.86Z"/></svg>