<?xml version="1.0" encoding="UTF-8" standalone="no"?>
<!DOCTYPE svg PUBLIC "-//W3C//DTD SVG 1.1//EN" "http://www.w3.org/Graphics/SVG/1.1/DTD/svg11.dtd">
<svg width="100%" height="100%" viewBox="0 0 4961 3508" version="1.1" xmlns="http://www.w3.org/2000/svg" xmlns:xlink="http://www.w3.org/1999/xlink" xml:space="preserve" xmlns:serif="http://www.serif.com/" style="fill-rule:evenodd;clip-rule:evenodd;stroke-linejoin:round;stroke-miterlimit:2;">
    <g transform="matrix(1,0,0,1,2479.7,1751.48)">
        <g id="Wüstenwind.ai" transform="matrix(1,0,0,1,-2480.31,-1753.94)">
            <g id="Ebene-1" serif:id="Ebene 1" transform="matrix(4.16667,0,0,4.16667,0,0)">
                <g transform="matrix(1,0,0,1,184.039,322.226)">
                    <path d="M0,220.154C0.233,218.188 1.744,217.123 3.115,216.092C9.237,211.488 15.217,206.712 21.48,202.27C29.978,196.243 39.038,191.196 47.808,185.653C50.513,183.944 53.127,182.137 55.63,180.13C60.135,176.517 65.152,173.68 70.325,171.143C77.793,167.479 85.618,164.679 93.415,161.819C96.263,160.774 99.113,159.736 101.961,158.691C106.615,156.983 111.323,155.736 116.306,155.102C123.73,154.157 131.292,154.027 138.552,151.904C139.31,151.682 140.124,151.622 140.918,151.557C145.527,151.181 150.14,150.851 154.746,150.445C155.849,150.347 156.933,150.028 158.022,149.792C159.739,149.419 161.456,148.686 163.165,148.709C169.223,148.79 175.276,148.437 181.347,149.108C189.438,150.002 197.567,150.756 205.73,150.527C210.446,150.395 214.911,151.327 219.306,152.975C227.531,156.058 235.795,159.041 244.062,162.014C245.857,162.659 247.72,163.133 249.574,163.596C250.605,163.853 251.391,163.152 251.501,162.023C251.674,160.249 251.493,158.512 250.88,156.832C249.238,152.336 247.846,147.727 245.879,143.378C243.291,137.656 241.434,131.746 240.288,125.612C239.609,121.978 240.043,118.286 240.39,114.625C240.54,113.038 240.725,111.451 240.794,109.86C241.031,104.395 242.205,99.182 244.101,94.017C248.338,82.469 255.022,72.371 262.349,62.685C265.128,59.012 268.117,55.443 271.141,51.947C274.486,48.08 278.542,44.918 282.677,41.906C284.612,40.496 286.539,39.156 288.123,37.276C290.322,34.664 293.437,33.206 296.463,31.766C306.71,26.888 316.733,21.579 326.368,15.598C333.081,11.431 340.474,8.877 347.633,5.751C348.509,5.368 349.494,5.191 350.308,4.713C358.584,-0.156 367.9,-1.791 377.056,-3.907C380.936,-4.803 384.823,-5.771 388.762,-6.29C394.626,-7.062 400.343,-8.592 406.187,-9.386C409.026,-9.772 411.926,-9.736 414.8,-9.83C418.31,-9.945 421.819,-10.139 425.319,-10.287C429.741,-10.475 434.281,-10.235 438.624,-9.411C446.611,-7.896 454.495,-5.836 462.412,-3.959C463.645,-3.666 464.825,-3.145 466.028,-2.725C469.04,-1.674 472.058,-0.637 475.062,0.44C476.713,1.032 478.403,1.565 479.965,2.346C488.694,6.709 496.963,11.859 505.083,17.248C507.763,19.027 509.955,21.359 511.876,23.952C516.154,29.726 520.533,35.414 525.273,40.831C527.912,43.848 529.738,47.458 531.241,51.158C533.405,56.486 535.646,61.768 538.365,66.841C539.959,69.815 541.054,73.003 541.895,76.244C543.743,83.364 546.071,90.304 549.035,97.037C551.178,101.904 552.115,107.095 552.867,112.31C553.342,115.598 553.748,118.863 553.056,122.25C552.445,125.237 553.576,128.26 553.814,131.278C556.141,142.18 554.161,142.421 566.974,142.416C569.028,142.416 571.071,142.567 573.048,141.856C583.482,139.193 594.011,139.241 604.626,140.536C610.809,141.29 616.149,143.758 620.951,147.588C623.972,149.962 627.051,152.283 628.619,155.983C629.805,158.71 630.607,161.608 632.701,163.905C635.088,166.523 637.891,167.92 641.476,167.54C642.09,167.335 642.692,167.091 643.319,166.923C646.151,166.056 648.292,164.1 650.49,162.275C652.574,160.544 654.688,158.801 656.496,156.8C659.692,153.264 663.746,151.119 667.945,149.157C670.254,148.078 672.61,147.097 674.967,146.123C679.109,144.411 683.432,143.477 687.851,142.682C694.2,141.539 700.559,141.88 706.92,141.72C710.105,141.64 713.296,141.884 716.469,141.305C717.379,141.139 718.365,141.357 719.313,141.431C720.902,141.554 722.492,141.85 724.076,141.819C736.393,141.578 747.674,144.918 758.043,151.486C759.075,152.078 760.186,152.555 760.992,153.481L760.947,153.445C766.197,156.331 769.281,161.399 773.224,165.605C777.268,171.479 780.556,177.83 784.647,183.675C785.93,186.006 786.647,188.585 787.829,190.961C788.579,194.721 790.628,197.983 791.898,201.546C792.531,203.323 793.481,204.988 793.749,206.893C795.969,211.88 797.546,217.006 797.447,222.553C797.388,225.828 796.021,227.93 792.575,227.596C782.732,226.643 772.907,228.542 763.076,227.628C762.467,227.571 761.795,227.656 761.108,226.584C762.37,224.688 764.638,224.573 766.614,223.928C770.322,222.719 770.586,221.938 768.175,219.135C767.138,217.929 765.41,216.778 765.896,215.179C766.47,213.286 768.575,213.997 770.106,213.925C772.29,213.822 774.73,213.412 774.922,210.96C775.127,208.328 772.573,207.928 770.488,207.597C769.226,207.397 767.934,207.472 766.66,207.352C762.911,207.001 760.224,205.36 759.773,201.325C759.292,197.019 756.463,195.967 752.699,194.897C745.459,192.838 740.313,195.548 735.912,200.753C734.016,202.996 732.009,203.388 729.626,201.883C727.232,200.37 727.391,198.217 728.465,195.992C729.475,193.9 729.784,191.752 729.373,189.467C728.938,187.051 729.328,184.743 730.132,182.414C731.713,177.834 731.261,177.285 726.224,177.247C724.771,177.237 723.366,177.068 721.953,176.754C715.06,175.221 712.1,176.747 709.16,183.238C708.472,184.756 708.512,187.049 706.253,187.173C704.033,187.295 702.891,185.495 702.094,183.725C701.186,181.705 700.089,181.56 698.432,182.839C697.273,183.733 695.872,184.214 694.413,184.26C687.545,184.478 680.6,185.178 673.837,183.904C665.843,182.398 657.719,181.259 649.912,179.116C638.896,176.093 627.575,175.582 616.448,173.625C613.353,173.08 611.22,173.496 610.373,177.049C609.686,179.929 607.074,180.751 604.49,181.269C601.827,181.804 599.099,182.055 596.503,182.882C592.315,184.215 591.565,186.056 593.613,190.015C594.724,192.162 595.791,194.286 595.821,196.773C595.884,202.175 593.845,204.604 588.436,204.493C580.138,204.323 571.86,203.554 563.555,203.345C553.803,203.1 544.072,203.815 534.327,203.823C532.75,203.824 530.466,203.631 531.261,206.636C531.624,208.007 531.099,209.191 529.6,209.637C527.925,210.137 526.144,209.954 525.324,208.402C522.992,203.986 518.982,203.362 514.709,203.41C506.227,203.506 497.833,202.463 489.406,201.777C482.528,201.218 475.671,202.001 468.855,202.941C466.097,203.321 463.634,202.981 462.231,200.328C459.628,195.406 455.217,194.161 450.163,194.067C448.085,194.028 445.989,193.895 443.936,194.229C439.16,195.004 434.429,195.418 429.706,193.847C428.085,193.307 426.405,193.545 425.517,195.207C424.565,196.989 425.214,198.587 426.603,199.95C428.09,201.41 431.162,202.007 430.173,204.914C429.238,207.662 426.283,207.262 424.041,207.861C416.308,209.927 408.551,210.057 400.82,207.93C391.6,205.393 382.39,207.603 373.18,207.9C371.12,207.966 369.062,208.431 366.977,208.412C338.527,208.164 310.103,210.067 281.647,209.396C275.348,209.247 269.243,210.576 263.25,212.348C260.863,213.053 257.804,213.722 258.445,217.189C259.027,220.339 262.009,220.325 264.282,219.922C274.854,218.043 285.598,218.806 296.248,217.847C311.253,216.495 326.478,214.931 341.674,216.883C347.704,217.658 353.814,217.069 359.887,217.16C364.085,217.223 368.191,217.657 371.953,219.725C374.659,221.212 377.504,221.026 380.364,220.402C387.354,218.874 394.234,217.804 400.507,222.78C401.863,223.856 403.876,223.671 405.566,224.137C406.604,224.423 408.019,224.635 407.841,226.091C407.695,227.287 406.594,228.032 405.391,227.994C402.346,227.9 399.377,228.671 396.336,228.606C382.345,228.307 368.4,226.952 354.346,227.96C346.322,228.536 338.169,226.866 330.092,227.338C322.148,227.801 314.234,228.489 306.255,228.604C296.256,228.749 286.24,229.383 276.255,229.311C263.386,229.217 250.3,230.629 237.683,228.271C222.412,225.418 207.056,228.069 191.861,225.78C185.548,224.829 179.1,225.341 172.788,226.65C167.294,227.79 161.762,228.239 156.136,228.173C140.645,227.994 125.162,228.767 109.682,228.909C100.181,228.996 90.592,228.568 81.106,227.333C80.31,227.229 79.46,226.997 78.725,227.211C69.919,229.769 60.956,227.611 52.106,227.737C44.958,227.839 37.845,228.056 30.725,228.591C29.772,228.662 28.644,228.921 27.876,228.488C22.413,225.409 16.63,227.958 11.035,227.424C10.271,227.352 9.46,227.689 8.659,227.629C7.598,227.55 6.224,228.035 5.708,226.693C5.126,225.184 6.393,224.375 7.373,223.597C8.371,222.804 9.465,222.134 10.59,221.502C8.14,222.748 5.562,223.678 2.867,224.118C-0.513,224.671 -1.684,223.382 0,220.154" style="fill:rgb(234,189,93);fill-rule:nonzero;"/>
                </g>
                <g transform="matrix(1,0,0,1,184.039,506.216)">
                    <path d="M0,36.164C-0.134,39.725 -0.044,39.823 3.174,38.785C6.951,37.568 10.824,36.575 14.191,34.337C14.519,34.119 14.886,34.171 15.011,34.521C15.1,34.771 15.072,35.203 14.908,35.381C12.953,37.504 10.514,39.011 8.144,40.604C7.619,40.957 7.054,41.267 6.587,41.685C6.422,41.833 6.463,42.247 6.475,42.537C6.479,42.651 6.646,42.831 6.765,42.855C7.379,42.98 8.025,43.219 8.617,43.133C10.485,42.861 12.281,42.339 14.215,43.08C15.28,43.489 16.37,42.723 17.376,42.231C20.171,40.864 22.826,40.722 25.43,42.802C26.838,43.927 28.593,44.125 30.411,44.182C33.194,44.269 35.964,43.8 38.27,42.545C40.216,41.487 41.691,41.536 43.636,42.091C46.998,43.052 50.311,43.359 53.955,42.552C57.572,41.752 61.569,41.468 65.178,43.523C66.797,44.445 68.594,44.43 70.251,43.576C74.04,41.621 77.941,41.968 81.911,42.776C83.15,43.028 84.475,43.321 85.69,43.135C90,42.473 94.177,43.06 98.361,44.014C99.278,44.224 100.27,44.141 101.227,44.141C109.861,44.149 118.495,44.148 127.128,44.144C128.723,44.143 130.317,44.214 131.852,43.584C133.378,42.959 135.009,43.2 136.598,43.196C145.392,43.179 154.185,43.162 162.979,43.206C165.237,43.217 167.412,43.021 169.554,42.23C173.477,40.781 177.521,39.973 181.738,40.304C182.374,40.353 183.028,40.383 183.654,40.291C188.097,39.642 192.452,40.145 196.809,41.068C198.194,41.362 199.673,41.26 201.109,41.263C209.902,41.277 218.695,41.267 227.489,41.273C229.553,41.274 231.65,41.039 233.404,42.595C234.15,43.257 235.199,43.173 236.161,43.184C240.456,43.234 244.713,43.273 249.012,43.983C252.22,44.513 255.671,44.614 258.969,43.454C260.624,42.872 262.455,43.074 264.197,43.398C270.522,44.576 276.838,44.608 283.163,43.374C284.742,43.066 286.341,43.04 287.888,43.631C289.906,44.402 292.045,44.465 294.014,43.845C296.069,43.198 298.097,43.198 300.165,43.193C306.081,43.179 311.996,43.202 317.912,43.182C320.455,43.173 322.978,43.297 325.494,42.453C327.129,41.904 329.005,41.975 330.695,42.565C332.902,43.335 335.012,43.275 337.257,42.639C339.896,41.892 342.642,41.944 345.304,42.636C348.938,43.579 352.605,43.316 356.238,42.919C357.527,42.778 358.665,42.661 359.951,42.981C360.985,43.238 362.208,43.164 363.251,42.881C366.889,41.894 370.464,41.938 374.098,42.911C375.305,43.234 376.632,43.167 377.904,43.177C381.741,43.207 385.578,43.179 389.416,43.192C391.325,43.199 393.194,43.208 395.088,43.824C396.892,44.411 398.898,44.575 400.6,43.287C401.507,42.601 402.38,42.927 403.321,43.079C404.422,43.256 405.564,43.349 406.594,42.764C406.826,42.632 407.039,42.277 407.053,42.014C407.065,41.807 406.772,41.416 406.585,41.397C405.636,41.3 404.669,41.362 403.722,41.251C401.159,40.951 398.672,40.394 396.865,38.341C395.602,36.906 394.058,36.523 392.183,36.424C388.141,36.211 384.233,36.93 380.379,37.88C378.463,38.353 376.595,38.34 374.689,38.375C373.703,38.394 372.718,38.208 371.97,37.595C368.534,34.777 364.456,34.545 360.297,34.555C355.66,34.565 351.024,34.576 346.387,34.549C343.845,34.535 341.299,34.755 338.806,33.814C337.812,33.439 336.595,33.61 335.478,33.606C331.002,33.588 326.525,33.596 322.048,33.6C321.249,33.6 320.4,33.45 319.659,33.664C314.003,35.297 308.225,34.372 302.505,34.519C298.828,34.614 295.154,34.421 291.703,36.03C290.499,36.591 289.199,36.468 287.925,36.471C284.407,36.481 280.89,36.437 277.373,36.486C274.038,36.532 270.73,36.378 267.392,37.229C265.136,37.805 262.626,37.405 260.229,37.403C258.803,37.402 257.896,36.622 257.232,35.388C256.523,34.072 256.196,32.725 256.391,31.244C256.502,30.405 256.855,29.676 257.573,29.261C258.815,28.543 260.051,27.686 261.407,27.318C264.775,26.405 268.217,25.767 271.616,24.959C277.436,23.576 283.352,24.038 289.238,24.02C301.709,23.98 314.18,24.012 326.65,24.003C328.719,24.002 330.76,24.041 332.807,23.366C334.123,22.932 335.648,23.063 337.08,23.06C347.152,23.039 357.225,23.053 367.297,23.045C369.207,23.043 371.143,23.23 372.964,22.394C373.247,22.264 373.586,22.174 373.893,22.189C379.965,22.503 385.957,21.151 391.991,21.215C396.261,21.259 400.458,22.435 404.65,23.346C409.686,24.441 414.749,24.338 419.811,23.395C422.307,22.931 424.691,21.868 427.309,22.027C427.756,22.054 428.268,21.873 428.666,21.644C429.218,21.325 429.748,20.85 429.622,20.131C429.547,19.701 429.316,19.132 428.979,18.946C428.013,18.415 426.919,18.12 425.944,17.602C423.485,16.296 422.386,12.524 423.689,10.063C424.457,8.613 427.381,7.435 429.157,7.895C429.615,8.013 430.057,8.224 430.48,8.444C433.956,10.25 437.618,9.826 441.241,9.219C446.325,8.366 451.335,8.347 456.397,9.506C459.284,10.166 461.293,11.628 462.558,14.237C462.976,15.099 463.384,15.972 463.882,16.787C464.522,17.835 465.453,18.321 466.724,18.025C474.867,16.126 483.151,16.292 491.43,16.323C493.689,16.331 495.712,17.508 498.025,17.341C500.232,17.182 502.463,17.135 504.644,17.996C505.972,18.52 507.559,18.532 508.892,17.996C510.817,17.222 512.552,17.4 514.464,18.036C515.628,18.424 517.001,18.302 518.271,18.235C522.082,18.034 524.721,19.437 525.968,23.244C526.504,24.881 528.129,25.359 529.824,24.716C530.479,24.468 530.73,23.349 530.456,22.648C529.944,21.339 528.309,21.287 527.728,20.092C529.614,19.122 533.191,18.27 535.648,18.259C539.805,18.24 543.963,18.282 548.119,18.241C550.023,18.222 551.964,18.536 553.812,17.778C557.029,18.642 560.249,16.783 563.587,18.015C565.428,18.694 567.699,18.171 569.774,18.262C573.898,18.444 578.001,18.056 582.156,18.99C585.196,19.674 588.516,19.158 591.709,19.094C592.736,19.073 593.582,18.427 593.844,17.438C594.896,13.459 594.983,9.594 592.097,6.212C591.89,5.969 591.641,5.759 591.451,5.504C589.675,3.111 590.058,0.525 592.537,-1.022C594.017,-1.945 595.578,-2.655 597.403,-2.894C600.381,-3.283 603.312,-4.016 606.274,-4.544C608.539,-4.949 609.63,-6.204 609.461,-8.528C609.427,-9.002 609.46,-9.491 609.539,-9.96C609.786,-11.431 610.651,-12.312 612.073,-12.356C613.014,-12.385 614.015,-12.332 614.895,-12.036C616.137,-11.617 617.38,-11.381 618.658,-11.492C621.27,-11.72 623.774,-11.224 626.142,-10.243C628.163,-9.405 630.222,-9.516 632.28,-9.58C636.646,-9.716 640.703,-8.668 644.876,-7.399C649.223,-6.076 653.685,-4.606 658.381,-4.767C659.999,-4.823 661.515,-4.493 663.065,-4.002C669.622,-1.925 676.286,-0.517 683.245,-0.897C686.434,-1.071 689.641,-0.997 692.836,-0.905C695.557,-0.827 697.903,-1.324 699.406,-3.893C699.71,-4.412 700.317,-4.766 700.815,-5.158C701.289,-5.53 702.237,-5.185 702.361,-4.589C702.651,-3.197 702.505,-1.736 703.267,-0.413C703.834,0.569 704.407,1.493 705.32,2.193C706.042,2.746 707.185,2.485 707.16,1.642C707.003,-3.571 711.393,-5.939 714.019,-9.393C714.464,-9.978 715.38,-10.096 716.247,-9.887C718.251,-9.405 720.366,-9.464 722.296,-8.586C723.935,-7.84 725.555,-7.522 727.354,-8.362C728.143,-8.731 729.264,-8.622 730.179,-8.445C732.385,-8.018 733.526,-5.774 732.699,-3.726C732.579,-3.431 732.444,-3.138 732.282,-2.864C730.502,0.153 729.693,3.225 731.101,6.701C731.789,8.402 731.186,10.171 730.249,11.735C729.758,12.555 729.092,13.289 728.718,14.154C728.298,15.123 728.609,16.17 729.512,16.668C730.605,17.272 731.858,17.584 733.135,18.057C734.601,17.125 734.416,15.096 735.859,14.244C737.092,13.516 738.195,12.567 739.436,11.858C740.709,11.13 741.888,10.325 742.643,9.056C743.49,7.632 744.577,7.723 745.925,8.25C748.311,9.184 750.759,9.896 753.381,9.628C754.881,9.475 756.176,10.101 757.499,10.692C759.758,11.702 761.054,13.32 761.059,15.856C761.059,16.335 761.116,16.82 761.065,17.293C760.762,20.091 762.411,21.392 765.428,21.961C767.13,22.283 768.934,22.108 770.69,22.082C772.905,22.049 774.747,22.873 776.274,24.411C777.812,25.96 777.685,28.093 776.029,29.406C773.669,31.275 771.199,32.535 768.13,30.984C767.776,30.806 767.02,30.828 766.813,31.068C766.285,31.683 766.853,32.227 767.31,32.6C768.416,33.502 769.574,34.343 770.724,35.191C772.895,36.79 772.885,38.705 770.196,40.484C769.38,41.025 768.452,41.217 767.471,41.28C766.683,41.331 765.892,41.482 765.127,41.68C764.094,41.948 763.084,42.304 761.959,42.656C762.768,43.431 763.561,43.17 764.277,43.175C768.594,43.202 772.911,43.163 777.227,43.197C779.951,43.218 782.658,43.326 785.111,41.774C786.16,41.111 787.288,41.274 788.221,42.095C789.709,43.404 791.476,43.327 793.22,43.084C795.464,42.771 796.744,40.841 796.127,38.582C795.782,37.321 795.374,36.06 795.749,34.832C796.6,32.035 795.771,29.515 794.695,27.034C794.115,25.696 793.544,24.401 793.749,22.903C794.054,23.265 794.459,23.582 794.649,23.998C797.177,29.53 799.393,35.156 799.739,41.333C799.896,44.155 799.003,45.131 796.11,44.807C788.935,44.003 781.775,44.242 774.593,44.701C771.745,44.883 768.856,44.321 765.991,44.372C759.287,44.49 752.587,44.786 745.884,44.986C742.847,45.076 739.814,45.093 736.794,44.61C735.7,44.435 734.543,44.318 733.459,44.476C727.082,45.404 720.737,44.996 714.353,44.451C709.905,44.071 705.408,44.227 700.933,44.214C695.019,44.196 689.104,44.277 683.191,44.26C675.36,44.237 667.529,44.1 659.698,44.125C650.748,44.152 641.771,43.904 632.854,44.5C621.033,45.289 609.23,44.795 597.425,44.758C592.18,44.742 586.915,44.08 581.64,44.109C574.448,44.149 567.256,44.184 560.064,44.241C557.348,44.263 554.629,44.453 551.918,44.366C546.329,44.186 540.725,45.167 535.202,44.76C519.87,43.633 504.533,44.527 489.205,44.136C481.38,43.937 473.543,44.3 465.711,44.304C455.641,44.31 445.57,44.186 435.5,44.166C429.266,44.154 423.003,43.858 416.806,44.354C406.587,45.173 396.372,45.106 386.148,45.061C381.677,45.042 377.216,44.892 372.746,44.489C368.788,44.132 364.78,44.216 360.78,44.621C355.535,45.151 350.292,45.165 345.004,44.572C337.202,43.697 329.368,44.06 321.574,45.055C316.254,46.095 310.82,45.959 305.453,46.342C294.646,47.114 283.785,47.147 272.958,46.201C267.201,45.698 261.405,45.893 255.755,46.727C243.416,48.549 231.212,46.366 218.948,46.214C206.654,46.061 194.517,43.8 182.23,43.674C180.658,43.658 179.03,43.313 177.509,44.064C173.351,44.023 169.217,44.18 165.083,44.786C162.408,45.178 159.662,45.167 156.947,45.182C143.195,45.255 129.443,45.272 115.692,45.331C114.579,45.336 113.451,45.426 112.358,45.627C110.286,46.008 108.195,46.026 106.145,45.758C102.007,45.218 97.854,45.233 93.701,45.128C89.55,45.023 85.394,45.138 81.261,44.466C79.71,44.213 78.061,44.346 76.482,44.524C67.544,45.531 58.599,45.157 49.659,44.67C47.897,44.574 46.169,44.661 44.419,44.701C38.028,44.845 31.613,45.088 25.243,44.697C16.933,44.188 8.629,44.246 0.32,44.17C-0.796,44.16 -1.919,44.258 -3.028,44.172C-4.486,44.059 -5.144,42.538 -4.227,41.344C-2.87,39.577 -1.414,37.887 0,36.164" style="fill:rgb(234,190,94);fill-rule:nonzero;"/>
                </g>
            </g>
        </g>
        <g id="Wüstenwind.ai1" serif:id="Wüstenwind.ai">
        </g>
    </g>
</svg>
