<svg id="visual" viewBox="0 0 900 300" width="900" height="300" xmlns="http://www.w3.org/2000/svg" xmlns:xlink="http://www.w3.org/1999/xlink" version="1.1"><rect x="0" y="0" width="900" height="300" fill="#f4ca6e"></rect><path d="M0 102L25 103.8C50 105.7 100 109.3 150 102.5C200 95.7 250 78.3 300 76.7C350 75 400 89 450 94.8C500 100.7 550 98.3 600 90.5C650 82.7 700 69.3 750 62.3C800 55.3 850 54.7 875 54.3L900 54L900 301L875 301C850 301 800 301 750 301C700 301 650 301 600 301C550 301 500 301 450 301C400 301 350 301 300 301C250 301 200 301 150 301C100 301 50 301 25 301L0 301Z" fill="#f7c559"></path><path d="M0 182L25 176C50 170 100 158 150 160C200 162 250 178 300 174.5C350 171 400 148 450 137.3C500 126.7 550 128.3 600 130.3C650 132.3 700 134.7 750 145.8C800 157 850 177 875 187L900 197L900 301L875 301C850 301 800 301 750 301C700 301 650 301 600 301C550 301 500 301 450 301C400 301 350 301 300 301C250 301 200 301 150 301C100 301 50 301 25 301L0 301Z" fill="#f1ba58"></path><path d="M0 200L25 198.3C50 196.7 100 193.3 150 202.5C200 211.7 250 233.3 300 233C350 232.7 400 210.3 450 199.2C500 188 550 188 600 198.7C650 209.3 700 230.7 750 231.7C800 232.7 850 213.3 875 203.7L900 194L900 301L875 301C850 301 800 301 750 301C700 301 650 301 600 301C550 301 500 301 450 301C400 301 350 301 300 301C250 301 200 301 150 301C100 301 50 301 25 301L0 301Z" fill="#eaaf57"></path></svg>