<svg id="visual" viewBox="0 0 960 300" width="960" height="300" xmlns="http://www.w3.org/2000/svg" xmlns:xlink="http://www.w3.org/1999/xlink" version="1.1"><rect x="0" y="0" width="960" height="300" fill="#f4ca6e"></rect><path d="M0 154L26.7 167C53.3 180 106.7 206 160 207C213.3 208 266.7 184 320 174.2C373.3 164.3 426.7 168.7 480 168.8C533.3 169 586.7 165 640 166.2C693.3 167.3 746.7 173.7 800 187.7C853.3 201.7 906.7 223.3 933.3 234.2L960 245L960 0L933.3 0C906.7 0 853.3 0 800 0C746.7 0 693.3 0 640 0C586.7 0 533.3 0 480 0C426.7 0 373.3 0 320 0C266.7 0 213.3 0 160 0C106.7 0 53.3 0 26.7 0L0 0Z" fill="#e0bc6e"></path><path d="M0 179L26.7 179.5C53.3 180 106.7 181 160 178.3C213.3 175.7 266.7 169.3 320 163C373.3 156.7 426.7 150.3 480 146.3C533.3 142.3 586.7 140.7 640 150C693.3 159.3 746.7 179.7 800 181.3C853.3 183 906.7 166 933.3 157.5L960 149L960 0L933.3 0C906.7 0 853.3 0 800 0C746.7 0 693.3 0 640 0C586.7 0 533.3 0 480 0C426.7 0 373.3 0 320 0C266.7 0 213.3 0 160 0C106.7 0 53.3 0 26.7 0L0 0Z" fill="#d8b364"></path><path d="M0 126L26.7 121.3C53.3 116.7 106.7 107.3 160 103.2C213.3 99 266.7 100 320 108.7C373.3 117.3 426.7 133.7 480 138.5C533.3 143.3 586.7 136.7 640 135.8C693.3 135 746.7 140 800 136.2C853.3 132.3 906.7 119.7 933.3 113.3L960 107L960 0L933.3 0C906.7 0 853.3 0 800 0C746.7 0 693.3 0 640 0C586.7 0 533.3 0 480 0C426.7 0 373.3 0 320 0C266.7 0 213.3 0 160 0C106.7 0 53.3 0 26.7 0L0 0Z" fill="#d0ab5b"></path><path d="M0 105L26.7 102.8C53.3 100.7 106.7 96.3 160 89.3C213.3 82.3 266.7 72.7 320 75.2C373.3 77.7 426.7 92.3 480 99.7C533.3 107 586.7 107 640 104.8C693.3 102.7 746.7 98.3 800 96.7C853.3 95 906.7 96 933.3 96.5L960 97L960 0L933.3 0C906.7 0 853.3 0 800 0C746.7 0 693.3 0 640 0C586.7 0 533.3 0 480 0C426.7 0 373.3 0 320 0C266.7 0 213.3 0 160 0C106.7 0 53.3 0 26.7 0L0 0Z" fill="#c8a352"></path><path d="M0 54L26.7 51.2C53.3 48.3 106.7 42.7 160 39.5C213.3 36.3 266.7 35.7 320 36.2C373.3 36.7 426.7 38.3 480 41.5C533.3 44.7 586.7 49.3 640 54.2C693.3 59 746.7 64 800 67C853.3 70 906.7 71 933.3 71.5L960 72L960 0L933.3 0C906.7 0 853.3 0 800 0C746.7 0 693.3 0 640 0C586.7 0 533.3 0 480 0C426.7 0 373.3 0 320 0C266.7 0 213.3 0 160 0C106.7 0 53.3 0 26.7 0L0 0Z" fill="#c19b48"></path></svg>