<svg id="visual" viewBox="0 0 900 300" width="900" height="300" xmlns="http://www.w3.org/2000/svg" xmlns:xlink="http://www.w3.org/1999/xlink" version="1.1"><rect x="0" y="0" width="900" height="300" fill="#eaaf57"></rect><path d="M0 142L25 136.3C50 130.7 100 119.3 150 123.3C200 127.3 250 146.7 300 156.5C350 166.3 400 166.7 450 164C500 161.3 550 155.7 600 145.5C650 135.3 700 120.7 750 106.2C800 91.7 850 77.3 875 70.2L900 63L900 301L875 301C850 301 800 301 750 301C700 301 650 301 600 301C550 301 500 301 450 301C400 301 350 301 300 301C250 301 200 301 150 301C100 301 50 301 25 301L0 301Z" fill="#e0ae44"></path><path d="M0 216L25 220.5C50 225 100 234 150 223.3C200 212.7 250 182.3 300 176.5C350 170.7 400 189.3 450 197.8C500 206.3 550 204.7 600 205.5C650 206.3 700 209.7 750 215.5C800 221.3 850 229.7 875 233.8L900 238L900 301L875 301C850 301 800 301 750 301C700 301 650 301 600 301C550 301 500 301 450 301C400 301 350 301 300 301C250 301 200 301 150 301C100 301 50 301 25 301L0 301Z" fill="#cda245"></path></svg>