<svg id="visual" viewBox="0 0 900 150" width="900" height="150" xmlns="http://www.w3.org/2000/svg" xmlns:xlink="http://www.w3.org/1999/xlink" version="1.1"><rect x="0" y="0" width="900" height="150" fill="#f4ca6e"></rect><path d="M0 54L25 51.5C50 49 100 44 150 48.7C200 53.3 250 67.7 300 76C350 84.3 400 86.7 450 85.7C500 84.7 550 80.3 600 74.2C650 68 700 60 750 64.7C800 69.3 850 86.7 875 95.3L900 104L900 151L875 151C850 151 800 151 750 151C700 151 650 151 600 151C550 151 500 151 450 151C400 151 350 151 300 151C250 151 200 151 150 151C100 151 50 151 25 151L0 151Z" fill="#f7d487"></path></svg>