<svg id="visual" viewBox="0 0 900 150" width="900" height="150" xmlns="http://www.w3.org/2000/svg" xmlns:xlink="http://www.w3.org/1999/xlink" version="1.1"><rect x="0" y="0" width="900" height="150" fill="#f7d487"></rect><path d="M0 57L25 62.5C50 68 100 79 150 86.7C200 94.3 250 98.7 300 92C350 85.3 400 67.7 450 58C500 48.3 550 46.7 600 51C650 55.3 700 65.7 750 69.7C800 73.7 850 71.3 875 70.2L900 69L900 151L875 151C850 151 800 151 750 151C700 151 650 151 600 151C550 151 500 151 450 151C400 151 350 151 300 151C250 151 200 151 150 151C100 151 50 151 25 151L0 151Z" fill="#ffe1a1"></path></svg>